<?xml version="1.0" encoding="utf-8"?>
<svg version="1.1" xmlns="http://www.w3.org/2000/svg" xmlns:xlink="http://www.w3.org/1999/xlink" x="0px" y="0px"
	 viewBox="0 0 32 32" style="enable-background:new 0 0 32 32;" xml:space="preserve">
<style type="text/css">
	.st0{fill:#BF9D3B;}
	.st1{fill:#D9C486;}
	.st2{fill:#62288B;}
	.st3{fill:#290403;}
</style>
<g id="Your_design">
	<g>
		<path class="st0" d="M4.4,5.7c-0.1,0-0.1,0-0.2,0C3.6,5.7,3,5.4,2.6,4.9C2.2,4.4,2,3.8,2.1,3.1C2.1,2.3,2.6,1.5,3.2,1
			C3.7,0.6,4.3,0.4,5,0.4c0.1,0,0.2,0,0.3,0l0,0c1,0.1,1.6,0.4,2.1,1.1c0.5,0.7,0.8,1.8,0.8,3.2l0,0.1l-0.1,0c-0.1,0-0.1,0-0.2,0
			C7.2,4.8,6.8,5,6.2,5.2L5.9,5.4l0.2-0.3c0,0,0.1-0.2,0.1-0.3l0,0l0,0c0,0,0-0.1,0.1-0.1c0.3-0.8,0.1-1.8-0.3-2.4
			C5.7,1.9,5.3,1.7,4.9,1.7c-0.1,0-0.2,0-0.4,0C4.1,1.9,3.8,2.1,3.6,2.4c-0.3,0.7,0,1.6,0,1.6l0,0.1l0.1,0C3.8,4.1,5.1,4,6,3.7
			l0.1,0l0,0.1c0,0.4-0.1,0.7-0.2,1L5.9,4.9C5.8,5.1,5.7,5.2,5.6,5.3C5.4,5.5,5.1,5.6,4.8,5.7c0,0,0,0-0.1,0l0,0l0,0
			C4.6,5.7,4.5,5.7,4.4,5.7z"/>
		<path class="st0" d="M3.8,3.8C3.7,3.5,3.6,3,3.8,2.6C4,2.3,4.2,2.1,4.6,2c0.1,0,0.2,0,0.3,0c0.4,0,0.7,0.3,0.9,0.5
			C5.9,2.7,6,3,6.1,3.3l0,0.1L6,3.4C5.3,3.7,4.3,3.8,3.9,3.9L3.8,3.8L3.8,3.8z"/>
		<path class="st1" d="M26.4,0.3C21.2,1,14.5,1,6.9,0.5c0.3,0.2,3.4,3.3-0.4,15c-1.8,5.7-2.6,11.9-0.9,14.6c0.5,0.7,1.1,1.2,2,1.4
			c0.3,0.1,0.6,0,1-0.1c0.5-0.1,0.9-0.4,1.2-0.9H8.2c-0.3,0-0.6-0.1-0.8-0.2c-0.3-0.2-0.6-0.5-0.7-0.9c-0.1-0.5-0.1-0.9,0.2-1.4
			c0.2-0.4,0.6-0.7,1.1-0.8c0.3-0.1,0.6-0.1,0.9,0c0.4,0,10.7,1,17,0.2c-0.3-3.5,0.7-7.4,1.6-11.5C29.9,4.8,28.5,1.8,26.4,0.3z
			 M23.9,24H11.4l-1-17.6h14.3L23.9,24z"/>
		<path class="st0" d="M8.9,30.3L9,30.1c0.1-0.1,0.2-0.3,0.2-0.5c0-0.1,0-0.2,0-0.2l0-0.1l1.1,0l0,0.1c0,0.3,0,0.6-0.1,0.8l0,0.1
			H8.9z"/>
		<path class="st0" d="M8.1,30.3c-0.2,0-0.4-0.1-0.5-0.2C7.3,30,7.1,29.7,7,29.4c-0.1-0.4,0-0.8,0.2-1.1c0.2-0.3,0.5-0.6,0.9-0.7
			c0.1,0,0.3-0.1,0.4-0.1c0.3,0,0.6,0.1,0.9,0.3c0.4,0.2,0.6,0.6,0.8,1.1l0,0.1l-1.4,0c-0.1,0-0.1,0-0.1,0.1c0,0,0,0.1,0.1,0.1
			c0.1,0.1,0.2,0.2,0.1,0.4c0,0.2-0.2,0.5-0.5,0.6c-0.1,0-0.2,0-0.2,0L8.1,30.3L8.1,30.3z"/>
		<path class="st1" d="M27.9,31.6c-0.2-0.1-1.7-0.4-4.7-0.6c-2.7-0.2-7.2-0.2-13.5,0.4c0.2-0.2,0.4-0.4,0.5-0.6
			c0.1-0.1,0.1-0.2,0.1-0.3c0,0,0,0,0,0c0.2-0.5,0.2-1,0.1-1.6c-0.1-0.4-0.3-0.8-0.7-1.1c1.3,0.1,3.6,0.3,6.3,0.3
			c4.2,0.1,7.5,0,10-0.3c0,0,0,0,0,0c0,0,0,0,0,0c0,0,0,0,0,0c0.6-0.1,1.2-0.2,1.8-0.3c1.1,0,2.1,0.9,2.1,2
			C30,30.7,29,31.6,27.9,31.6z"/>
		<path class="st2" d="M14.9,8.6l0.3,0.8c0.2,0.6,0.6,1,1.2,1.2l0.8,0.3l-0.8,0.3c-0.6,0.2-1,0.6-1.2,1.2l-0.3,0.8l-0.3-0.8
			c-0.2-0.6-0.6-1-1.2-1.2l-0.8-0.3l0.8-0.3c0.6-0.2,1-0.6,1.2-1.2L14.9,8.6z"/>
		<path class="st2" d="M15,18.6l0.2,0.5c0.1,0.4,0.4,0.7,0.8,0.8l0.5,0.2l-0.5,0.2c-0.4,0.1-0.7,0.4-0.8,0.8L15,21.5L14.8,21
			c-0.1-0.4-0.4-0.7-0.8-0.8l-0.5-0.2l0.5-0.2c0.4-0.1,0.7-0.4,0.8-0.8L15,18.6z"/>
		<path class="st3" d="M27.9,27.1C27.9,27.1,27.8,27.1,27.9,27.1c-0.5,0.1-1.1,0.2-1.6,0.3c-0.4-3.3,0.5-7.6,1.4-11.7
			c0.7-3.3,1.4-6.5,1.5-9.2c0-1.5-0.1-2.7-0.5-3.7c-0.4-1.2-1.1-2.1-2-2.7c0,0-0.1,0-0.1,0C19,0.8,12.7,0.9,5.4,0
			C4.5-0.1,3.7,0.2,3,0.7C2.2,1.3,1.8,2.2,1.7,3.1c-0.1,0.7,0.2,1.5,0.6,2c0.5,0.6,1.1,0.9,1.9,1c0.2,0,0.5,0,0.7,0
			c1.5-0.3,1.6-1,3.2-0.9c0,0.6-0.1,1.2-0.1,2c-0.3,2.4-1,5.4-1.7,8.2c-0.7,2.9-1.4,6-1.7,8.6c-0.4,3-0.1,5.1,0.7,6.4
			c0.5,0.8,1.3,1.4,2.3,1.6c0.1,0,0.3,0,0.4,0c0.2,0,0.3,0,0.5,0c6.9-0.8,11.8-0.8,14.7-0.6c3.1,0.2,4.6,0.6,4.6,0.6c0,0,0,0,0.1,0
			c1.3,0,2.4-1.1,2.4-2.4C30.3,28.2,29.2,27.1,27.9,27.1z M6.2,5.2c0,0,0.1-0.2,0.2-0.3c0-0.1,0.1-0.2,0.1-0.2
			C6.6,3.9,6.5,2.9,6,2.2C5.6,1.7,5.1,1.5,4.5,1.7C4,1.8,3.7,2,3.5,2.4c-0.4,0.7,0,1.7,0,1.7l0.1,0.2l0.2,0c0.1,0,1.3-0.1,2.3-0.5
			C6,4.1,6,4.4,5.9,4.7L5.8,4.8C5.7,5,5.7,5.1,5.5,5.2C5.3,5.4,5.1,5.5,4.8,5.6c0,0-0.1,0-0.1,0c0,0,0,0,0,0c-0.2,0-0.3,0-0.5,0
			C3.6,5.6,3.1,5.3,2.7,4.8C2.3,4.3,2.1,3.7,2.2,3.1c0.1-0.8,0.5-1.5,1.1-2c0.6-0.5,1.3-0.7,2.1-0.6c0,0,0,0,0,0
			c1,0.1,1.6,0.4,2,1.1c0.5,0.7,0.7,1.7,0.8,3.2C7.3,4.7,6.8,4.8,6.2,5.2z M6,3.3C5.3,3.6,4.3,3.7,3.9,3.8C3.8,3.5,3.7,3,3.9,2.6
			C4,2.4,4.3,2.2,4.6,2.1c0.1,0,0.2,0,0.3,0c0.4,0,0.6,0.2,0.8,0.4C5.8,2.7,5.9,3,6,3.3z M8.7,31.5c-0.4,0.1-0.7,0.1-1,0.1
			c-0.9-0.2-1.6-0.7-2-1.4c-1.7-2.7-0.3-8.8,1.1-14.7c1.4-6,2.8-11.6,1-14.2C7.5,1,7.3,0.8,7,0.6c6,0.6,12.6,0.5,19.4-0.2
			c1.6,1.2,2.4,3.1,2.3,6.1c0,2.7-0.7,5.8-1.5,9.1c-0.9,4.1-1.9,8.4-1.4,11.8c-6.3,0.8-16.6-0.1-17-0.2c-0.3-0.1-0.6-0.1-0.9,0
			c-0.5,0.1-0.8,0.4-1.1,0.8c-0.2,0.4-0.3,0.9-0.2,1.4c0.1,0.4,0.3,0.7,0.7,0.9c0.2,0.1,0.5,0.2,0.8,0.2h1.7
			C9.6,31,9.2,31.3,8.7,31.5z M9.2,29.4l0.9,0c0,0.3,0,0.5-0.1,0.8H9c0.1-0.2,0.2-0.3,0.2-0.5C9.3,29.6,9.3,29.5,9.2,29.4z M8.8,29
			C8.8,29,8.8,29,8.8,29c-0.1,0-0.2,0.1-0.2,0.2c0,0.1,0,0.2,0.1,0.2c0.1,0.1,0.1,0.2,0.1,0.3c0,0.2-0.2,0.5-0.4,0.5
			c-0.1,0-0.1,0-0.2,0H8.1c-0.2,0-0.3-0.1-0.5-0.1c-0.2-0.1-0.4-0.4-0.5-0.6c-0.1-0.4,0-0.7,0.1-1c0.2-0.3,0.5-0.5,0.8-0.6
			c0.1,0,0.3-0.1,0.4-0.1c0.3,0,0.6,0.1,0.9,0.3c0.3,0.2,0.6,0.6,0.7,1L8.8,29z M27.9,31.6c-0.2-0.1-1.7-0.4-4.7-0.6
			c-2.7-0.2-7.2-0.2-13.5,0.4c0.2-0.2,0.4-0.4,0.5-0.6c0.1-0.1,0.1-0.2,0.1-0.3c0,0,0,0,0,0c0.2-0.5,0.2-1,0.1-1.6
			c-0.1-0.4-0.3-0.8-0.7-1.1c1.3,0.1,3.6,0.3,6.3,0.3c4.2,0.1,7.5,0,10-0.3c0,0,0,0,0,0c0,0,0,0,0,0c0,0,0,0,0,0
			c0.6-0.1,1.2-0.2,1.8-0.3c1.1,0,2,0.9,2,2C29.9,30.7,29,31.6,27.9,31.6z"/>
		<path class="st3" d="M23.6,8.6l-3,2.2l-0.1,4.8l2.8-0.1L23.6,8.6 M20.2,11.1l-1.4,1.1l0,3.5l1.4-0.1L20.2,11.1 M18.7,16.1l0,3.3
			l1.3,0.9l0.1-4.2L18.7,16.1 M20.5,16.2l-0.1,4.4l2.6,1.8l0.3-6.1L20.5,16.2 M11,7l0.8,16.8h11.8l0,0l-5.1-4.1l0-7.8L24.3,7l0,0H11
			 M24.3,24.4H11L10,6.1h15.2L24.3,24.4"/>
	</g>
</g>
</svg>
