<?xml version="1.0" encoding="utf-8"?>
<!-- Generator: Adobe Illustrator 24.3.0, SVG Export Plug-In . SVG Version: 6.00 Build 0)  -->
<svg version="1.1" xmlns="http://www.w3.org/2000/svg" xmlns:xlink="http://www.w3.org/1999/xlink" x="0px" y="0px"
	 viewBox="0 0 64 64" style="enable-background:new 0 0 64 64;" xml:space="preserve">
<style type="text/css">
	.st0{fill:#BF9D3B;}
	.st1{fill:#D9C486;}
	.st2{fill:#62288B;}
	.st3{fill:#290403;}
	.st4{display:none;}
</style>
<g id="Your_design">
	<g>
		<path class="st0" d="M8.8,11.5c-0.1,0-0.2,0-0.3,0C7.2,11.3,6,10.7,5.2,9.7C4.4,8.8,4,7.5,4.1,6.3c0.2-1.6,1-3.2,2.3-4.2
			C7.4,1.2,8.7,0.8,10,0.8c0.2,0,0.5,0,0.7,0l0,0c2,0.2,3.2,0.8,4.2,2.2c1,1.5,1.5,3.6,1.6,6.4l0,0.2l-0.2,0c-0.1,0-0.3,0-0.4,0
			c-1.4,0-2.3,0.3-3.4,0.9l-0.7,0.3l0.4-0.6c0.1-0.1,0.2-0.4,0.3-0.5l0,0l0,0c0-0.1,0.1-0.2,0.1-0.3c0.5-1.6,0.3-3.6-0.7-4.8
			c-0.6-0.7-1.3-1.1-2.2-1.1c-0.2,0-0.5,0-0.7,0.1C8.1,3.8,7.5,4.2,7.2,4.9C6.5,6.2,7.2,8.1,7.3,8.1l0.1,0.2l0.2,0
			c0.1,0,2.6-0.3,4.5-0.9l0.3-0.1l0,0.3c0,0.7-0.1,1.4-0.4,1.9l-0.1,0.3c-0.2,0.4-0.4,0.7-0.6,0.8c-0.5,0.4-1,0.7-1.6,0.8
			c-0.1,0-0.1,0-0.1,0l0,0l0,0C9.2,11.4,9,11.5,8.8,11.5z"/>
		<path class="st0" d="M7.6,7.6C7.5,7,7.2,5.9,7.7,5.1c0.3-0.5,0.8-0.9,1.5-1C9.3,4,9.5,4,9.7,4c0.9,0,1.4,0.5,1.8,0.9
			c0.3,0.4,0.6,1,0.7,1.6l0,0.2l-0.2,0.1c-1.4,0.6-3.4,0.8-4.2,0.9l-0.2,0L7.6,7.6z"/>
		<path class="st1" d="M52.9,0.7C42.3,2,29,2.1,13.7,1c0.5,0.4,6.7,6.7-0.7,30c-3.7,11.5-5.2,23.7-1.7,29.2c0.9,1.5,2.3,2.4,4.1,2.8
			c0.6,0.1,1.2,0.1,2-0.1c1-0.3,1.8-0.9,2.4-1.8h-3.3c-0.6,0-1.1-0.1-1.6-0.4c-0.7-0.4-1.2-1-1.4-1.8c-0.2-0.9-0.1-1.9,0.4-2.7
			c0.5-0.8,1.3-1.4,2.2-1.7c0.6-0.2,1.2-0.2,1.8-0.1c0.7,0.1,21.4,2,34,0.4c-0.7-6.9,1.4-14.8,3.2-23.1C59.8,9.5,57,3.5,52.9,0.7z
			 M47.8,48.1H22.9l-2-35.2h28.6L47.8,48.1z"/>
		<path class="st0" d="M17.7,60.6l0.2-0.3c0.2-0.3,0.3-0.6,0.4-0.9c0-0.2,0-0.3,0-0.5l-0.1-0.2l2.3,0l0,0.2c0,0.6,0,1.1-0.2,1.6
			l0,0.1H17.7z"/>
		<path class="st0" d="M16.2,60.6c-0.4,0-0.7-0.1-1.1-0.3c-0.5-0.3-0.9-0.8-1.1-1.4c-0.2-0.8-0.1-1.5,0.3-2.2c0.4-0.7,1-1.2,1.8-1.4
			c0.3-0.1,0.5-0.1,0.8-0.1c0.7,0,1.3,0.2,1.9,0.6c0.7,0.5,1.3,1.3,1.5,2.1l0.1,0.3l-2.7,0c-0.1,0-0.2,0.1-0.2,0.2
			c0,0.1,0,0.2,0.1,0.3c0.2,0.1,0.3,0.4,0.3,0.7c-0.1,0.5-0.4,1.1-1,1.2c-0.2,0-0.3,0.1-0.5,0.1l0,0H16.2z"/>
		<path class="st1" d="M55.8,63.1c-0.5-0.1-3.4-0.9-9.4-1.3c-5.4-0.4-14.4-0.5-27,0.9c0.4-0.4,0.8-0.8,1-1.2
			c0.1-0.2,0.2-0.4,0.3-0.6c0,0,0,0,0,0c0.4-1,0.5-2.1,0.2-3.1c-0.2-0.8-0.7-1.6-1.3-2.2c2.6,0.2,7.2,0.5,12.5,0.7
			c8.3,0.3,15,0.1,19.9-0.6c0,0,0,0,0,0c0,0,0,0,0.1,0c0,0,0,0,0.1,0c1.3-0.2,2.5-0.4,3.5-0.6c2.2,0,4.3,1.8,4.3,4
			C60.1,61.3,58,63.1,55.8,63.1z"/>
		<path class="st2" d="M29.9,17.2l0.5,1.6c0.4,1.1,1.2,2,2.4,2.4l1.6,0.5l-1.6,0.5c-1.1,0.4-2,1.2-2.4,2.4l-0.5,1.6l-0.5-1.6
			c-0.4-1.1-1.2-2-2.4-2.4l-1.6-0.5l1.6-0.5c1.1-0.4,2-1.2,2.4-2.4L29.9,17.2z"/>
		<path class="st2" d="M30,37.2l0.3,1c0.2,0.7,0.8,1.3,1.6,1.6l1,0.3l-1,0.3c-0.7,0.2-1.3,0.8-1.6,1.6L30,43l-0.3-1
			c-0.2-0.7-0.8-1.3-1.6-1.6l-1-0.3l1-0.3c0.7-0.2,1.3-0.8,1.6-1.6L30,37.2z"/>
		<path class="st3" d="M55.8,54.2C55.7,54.2,55.7,54.3,55.8,54.2c-1.1,0.2-2.1,0.4-3.2,0.6c-0.8-6.7,1-15.2,2.9-23.4
			c1.5-6.6,2.8-12.9,2.9-18.4c0.1-3-0.3-5.4-1-7.5c-0.8-2.3-2.2-4.2-4.1-5.5C53.2,0,53.1,0,53,0C38,1.6,25.5,1.8,10.8,0
			C9-0.2,7.3,0.3,5.9,1.5C4.5,2.6,3.6,4.3,3.4,6.2c-0.1,1.5,0.3,2.9,1.3,4c0.9,1.1,2.3,1.8,3.7,2c0.5,0,0.9,0,1.3-0.1
			c3.1-0.6,3.3-1.9,6.5-1.8c0,1.2-0.1,2.5-0.3,3.9c-0.6,4.9-2,10.8-3.3,16.5c-1.4,5.9-2.8,12-3.5,17.2C8.4,54,8.8,58,10.5,60.7
			c1,1.7,2.6,2.8,4.6,3.2C15.4,64,15.7,64,16,64c0.3,0,0.6,0,1-0.1c13.9-1.7,23.6-1.6,29.4-1.2c6.3,0.4,9.3,1.2,9.3,1.2
			c0,0,0.1,0,0.1,0c2.7,0,4.9-2.2,4.9-4.9C60.6,56.4,58.4,54.2,55.8,54.2z M12.3,10.3c0-0.1,0.2-0.4,0.3-0.6c0-0.1,0.1-0.3,0.1-0.3
			c0.5-1.6,0.3-3.7-0.7-4.9c-0.8-1-1.9-1.4-3.1-1.1C8,3.6,7.4,4.1,7,4.8C6.3,6.2,7,8.1,7.1,8.2l0.1,0.3l0.3,0c0.1,0,2.7-0.3,4.5-0.9
			c0,0.7-0.1,1.3-0.4,1.9l-0.1,0.3c-0.1,0.3-0.3,0.6-0.5,0.8c-0.5,0.4-1,0.6-1.5,0.7c-0.1,0-0.1,0-0.1,0c0,0,0,0,0,0
			c-0.3,0.1-0.6,0.1-0.9,0c-1.2-0.1-2.3-0.7-3.1-1.6c-0.8-0.9-1.1-2.1-1-3.3c0.1-1.6,0.9-3.1,2.2-4.1c1.2-1,2.7-1.4,4.2-1.2
			c0,0,0,0,0,0c2,0.2,3.1,0.8,4,2.1c1,1.4,1.5,3.4,1.5,6.3C14.6,9.4,13.6,9.7,12.3,10.3z M12,6.6c-1.4,0.5-3.3,0.8-4.1,0.9
			C7.7,7,7.5,6,7.8,5.2c0.2-0.5,0.7-0.8,1.3-0.9c0.2,0,0.4-0.1,0.5-0.1c0.8,0,1.3,0.4,1.6,0.8C11.6,5.5,11.9,6,12,6.6z M17.3,63
			c-0.8,0.2-1.4,0.2-2,0.1c-1.8-0.4-3.1-1.3-4.1-2.8c-3.4-5.5-0.6-17.6,2.2-29.3c2.8-12,5.5-23.3,2-28.3c-0.4-0.5-0.8-1-1.3-1.4
			c12.1,1.2,25.1,1.1,38.8-0.4c3.2,2.4,4.7,6.2,4.6,12.2c-0.1,5.4-1.5,11.6-2.9,18.2c-1.8,8.3-3.7,16.8-2.9,23.6
			c-12.6,1.6-33.2-0.3-34-0.3c-0.6-0.1-1.2-0.1-1.8,0.1c-0.9,0.2-1.7,0.8-2.2,1.7c-0.5,0.8-0.6,1.8-0.4,2.7c0.2,0.8,0.7,1.4,1.4,1.8
			c0.5,0.3,1,0.4,1.6,0.4h3.3C19.1,62.1,18.3,62.7,17.3,63z M18.5,58.8l1.8,0c0,0.5,0,1.1-0.2,1.6h-2c0.2-0.3,0.4-0.7,0.4-1
			C18.5,59.2,18.5,59,18.5,58.8z M17.7,57.9C17.7,57.9,17.7,57.9,17.7,57.9c-0.2,0-0.4,0.1-0.4,0.3c0,0.2,0,0.4,0.2,0.5
			c0.2,0.1,0.2,0.4,0.2,0.5c-0.1,0.4-0.4,0.9-0.8,1c-0.1,0-0.3,0.1-0.4,0.1h-0.2c-0.3,0-0.7-0.1-1-0.3c-0.5-0.3-0.8-0.7-1-1.3
			c-0.2-0.7-0.1-1.4,0.3-2.1c0.4-0.6,1-1.1,1.7-1.3c0.3-0.1,0.5-0.1,0.8-0.1c0.6,0,1.2,0.2,1.7,0.5c0.7,0.5,1.2,1.2,1.5,2L17.7,57.9
			z M55.8,63.1c-0.5-0.1-3.4-0.9-9.4-1.3c-5.4-0.4-14.4-0.5-27,0.9c0.4-0.4,0.8-0.8,1-1.2c0.1-0.2,0.2-0.4,0.3-0.6c0,0,0,0,0,0
			c0.4-1,0.5-2.1,0.2-3.1c-0.2-0.8-0.7-1.6-1.3-2.2c2.6,0.2,7.2,0.5,12.5,0.7c8.3,0.3,15,0.1,19.9-0.6c0,0,0,0,0,0c0,0,0,0,0.1,0
			c0,0,0,0,0.1,0c1.3-0.2,2.5-0.4,3.5-0.6c2.2,0,4,1.8,4,4C59.8,61.3,58,63.1,55.8,63.1z"/>
		<path class="st3" d="M47.1,17.2l-5.9,4.4L41,31.2l5.5-0.3L47.1,17.2 M40.4,22.3l-2.9,2.1l-0.1,7l2.7-0.1L40.4,22.3 M37.4,32.3
			l-0.1,6.6l2.6,1.9l0.2-8.3L37.4,32.3 M41,32.5l-0.2,8.8l5.2,3.7l0.5-12.2L41,32.5 M21.9,14l1.6,33.6H47l0,0l-10.2-8.1l0.1-15.6
			L48.6,14l0,0H21.9 M48.5,48.9H22l-2-36.7h30.4L48.5,48.9"/>
	</g>
</g>
<g id="Guides" class="st4">
</g>
</svg>
