<?xml version="1.0" encoding="utf-8"?>
<!-- Generator: Adobe Illustrator 24.3.0, SVG Export Plug-In . SVG Version: 6.00 Build 0)  -->
<svg version="1.1" xmlns="http://www.w3.org/2000/svg" xmlns:xlink="http://www.w3.org/1999/xlink" x="0px" y="0px"
	 viewBox="0 0 1000 1000" style="enable-background:new 0 0 1000 1000;" xml:space="preserve">
<style type="text/css">
	.st0{fill:#BF9D3B;}
	.st1{fill:#D9C486;}
	.st2{fill:#62288B;}
	.st3{fill:#290403;}
	.st4{display:none;}
</style>
<g id="Your_design">
	<g>
		<path class="st0" d="M253.6,281.8c-1.2,0-2.5-0.1-3.7-0.2c-13.5-1.2-25.7-7.7-34.3-18.1c-8.7-10.4-12.7-23.6-11.5-37.1
			c1.6-17.4,10.3-33.7,23.9-44.7c11.2-9,24.4-13.8,38.4-13.8c2.4,0,4.9,0.1,7.3,0.4l0.2,0c21.7,2.5,34.1,9,44.1,23.3
			c10.8,15.4,16.3,37.7,16.6,68.2l0,2.2l-2.2-0.1c-1.4-0.1-2.8-0.1-4.1-0.1c-15.2,0-24.9,3.4-36.4,9.3l-7.2,3.7l4.4-6.7
			c0.5-0.8,2.3-3.9,3-5.8l0-0.1l0.1-0.1c0.4-0.8,0.9-2.4,1.1-3c5.7-16.9,2.9-37.7-7-50.6c-6.1-7.9-14.1-12.1-23.1-12.1
			c-2.4,0-5,0.3-7.5,0.9c-9.4,2.2-15.9,7-19.5,14.1c-7.4,14.6,0.5,33.8,0.9,34.6l0.8,2l2.1-0.2c1.1-0.1,27.9-2.7,47.6-9.8l2.8-1l0,3
			c0.1,7.5-1.2,14.6-3.9,20.7l-1.2,2.7c-1.9,4-3.9,6.9-6.4,9c-5,4.1-10.9,7-17.2,8.4c-0.6,0.1-0.9,0.2-1.1,0.2l-0.1,0l-0.2,0
			C258.2,281.6,255.9,281.8,253.6,281.8z"/>
		<path class="st0" d="M241.2,240.4c-1.8-6-4.2-17.3,0.2-26.1c2.9-5.6,8-9.2,15.7-11c2.1-0.5,4.1-0.7,6.1-0.7
			c9.2,0,15.2,5.3,18.6,9.8c3.5,4.6,6.1,10.5,7.5,17.2l0.4,1.8l-1.7,0.7c-14.9,5.9-36.1,8.9-44.6,9.9l-1.8,0.2L241.2,240.4z"/>
		<path class="st1" d="M721.9,167.1c-112.4,13.6-254,14.9-416.2,4c5.4,4,71.4,71-7.9,318.6c-39,121.8-54.9,252-18.5,310.4
			c9.9,15.9,24,25.7,43.3,30.1c5.9,1.3,12.9,0.9,21.3-1.3c10.6-2.8,19.6-9.4,25.5-18.7h-35.2c-5.9,0.2-11.7-1.2-16.9-4.3
			c-7.2-4.2-12.3-11-14.5-19.1c-2.6-9.8-1.2-20,4-28.8c5.1-8.8,13.3-15,23.1-17.6c6.2-1.6,12.6-1.8,18.7-0.5
			c7.8,0.7,227.8,20.9,361.7,4.3C702.9,670.7,725.1,587,744,499C795.2,261.5,765.2,197.4,721.9,167.1z M667.8,670.7H403.1L382,296.3
			h303.9L667.8,670.7z"/>
		<path class="st0" d="M348.1,803.3l2.4-3.4c2.1-2.9,3.5-6.3,3.9-9.6c0.2-1.9,0.2-3.6-0.2-5.2l-0.6-2.6l24.2,0l0.1,2
			c0.4,5.9-0.4,11.7-2.3,17.4l-0.5,1.4H348.1z"/>
		<path class="st0" d="M331.9,803.3c-4-0.2-7.8-1.3-11.2-3.3c-5.6-3.3-9.6-8.6-11.3-14.9c-2.1-8-1-16.4,3.2-23.5
			c4.2-7.2,10.9-12.3,18.9-14.4c2.9-0.8,5.8-1.1,8.7-1.1c6.9,0,13.7,2.1,19.7,6.2c7.8,5.3,13.8,13.6,16.4,22.8l0.8,2.7l-29.1,0
			c-1.1,0-2,0.7-2.3,1.8c-0.3,1.1,0.2,2.2,1.1,2.7c2.3,1.3,3.3,4,2.9,7.5c-0.7,5.2-4.5,11.2-10.5,12.8c-1.7,0.4-3.4,0.7-5.1,0.8l0,0
			H331.9z"/>
		<path class="st1" d="M753,830.8c-4.9-1.3-36.6-9.1-99.4-13.4c-57.8-3.9-153.3-5.2-286.8,9.4c4.3-3.7,8.1-8.2,11.1-13.3
			c1.1-2,2.1-4,3-6c0,0,0-0.1,0.1-0.2c4.4-10.5,5.3-22.1,2.3-33.3c-2.3-8.9-7.3-17.1-14.1-23.3c27.2,2.1,77,5.6,133.3,7.4
			c88.7,2.9,159.6,0.8,211.6-6c0.1,0,0.1,0,0.2,0c0.2,0,0.4,0,0.6,0c0.3,0,0.5-0.1,0.8-0.2c13.7-1.8,26.2-4,37.2-6.6
			c23.4,0.3,45.5,19.3,45.5,42.7C798.4,811.5,776.3,830.5,753,830.8z"/>
		<path class="st2" d="M477.4,343.3l5.4,16.8c3.9,11.9,13.2,21.3,25.1,25.1l16.8,5.4l-16.8,5.4c-11.9,3.9-21.3,13.2-25.1,25.1
			l-5.4,16.8l-5.4-16.8c-3.9-11.9-13.2-21.3-25.1-25.1l-16.8-5.4l16.8-5.4c11.9-3.9,21.3-13.2,25.1-25.1L477.4,343.3z"/>
		<path class="st2" d="M478.4,554.9L482,566c2.5,7.9,8.7,14,16.6,16.6l11.1,3.6l-11.1,3.6c-7.9,2.5-14,8.7-16.6,16.6l-3.6,11.1
			l-3.6-11.1c-2.5-7.9-8.7-14-16.6-16.6l-11.1-3.6l11.1-3.6c7.9-2.5,14-8.7,16.6-16.6L478.4,554.9z"/>
		<path class="st3" d="M752.4,736.4c-0.3,0-0.7,0-1,0.1c-10.1,2.3-21.3,4.3-33.2,6c-8.7-71,11.1-161,30.3-248.1
			c15.5-70.5,30.2-137.1,31.3-195.3c0.6-31.6-2.9-57.7-10.8-79.7c-8.8-24.6-23.3-44.2-43.3-58.3c-0.9-0.6-2-0.9-3.1-0.8
			c-159.1,17-291.8,19.3-447.9,0.3c-18.6-2.3-37,3.1-51.8,15c-15.3,12.3-25.1,30.6-26.9,50.2c-1.4,15.6,3.3,30.9,13.3,43
			c10,12.1,24.2,19.5,39.8,21c4.8,0.4,9.6,0.1,14.3-0.8c32.6-6.1,35-20.3,69.1-19.1c-0.3,12.6-1.3,26.5-3.1,41.7
			c-6.3,52.1-21.1,114.6-35.4,175c-14.8,62.5-30.1,127.1-36.8,182.8c-7.7,64.3-3.2,107.4,14.4,135.6c11.1,17.7,27.5,29.2,48.9,34.1
			c2.9,0.7,6,1,9.2,1c3.2,0,6.6-0.3,10.2-1c147.3-17.8,251.2-16.6,312.5-12.6c66.4,4.4,98.4,13.2,98.7,13.3c0.4,0.1,0.8,0.2,1.2,0.2
			c28.6,0,51.8-23.2,51.8-51.7C804.2,759.6,781,736.4,752.4,736.4z M291,269.6c0.5-0.8,2.4-4,3.2-6.3c0.5-1.1,1.2-3.2,1.2-3.2
			c5.8-17.2,3.1-38.9-7.3-52.6c-8.3-10.8-19.9-15-32.8-12c-10,2.4-17,7.5-20.9,15.2c-7.8,15.5,0.5,35.5,0.8,36.4l1.4,3.4l3.7-0.3
			c1.3-0.1,28.2-2.8,48.1-9.9c0.1,6.9-1.1,13.9-3.7,19.8l-1.2,2.7c-1.5,3.2-3.3,6.1-5.8,8.2c-4.8,4-10.4,6.7-16.3,7.9
			c-0.7,0.1-1.1,0.2-1.3,0.2c0,0,0,0,0,0c-3.3,0.6-6.7,0.7-10.1,0.4c-12.9-1.2-24.6-7.3-32.9-17.3c-8.3-10-12.2-22.6-11-35.5
			c1.6-16.9,10-32.6,23.1-43.2c12.7-10.2,28.3-14.8,44.2-12.9c0,0,0,0,0,0c21.5,2.4,33.1,8.7,42.8,22.5c10.5,15,15.9,36.6,16.2,67
			C314.7,259.5,304.2,262.8,291,269.6z M287.3,230c-14.6,5.8-35.5,8.8-44,9.8c-1.7-5.5-4-16.3,0.1-24.5c2.6-5,7.2-8.3,14.3-9.9
			c2-0.5,3.8-0.7,5.6-0.7c8.1,0,13.6,4.6,16.9,9C283.6,218.2,286,223.9,287.3,230z M343.8,828.9c-8.4,2.2-15.4,2.6-21.3,1.3
			c-19.3-4.4-33.4-14.2-43.3-30.1c-36.4-58.4-5.9-187.1,23.5-311.5c30.1-127.1,58.5-247.2,20.9-300.7c-4-5.7-8.7-10.5-14.1-14.5
			c128.4,12.7,266.9,11.4,412.3-4c34.5,25.2,50.1,66.4,48.9,129.4c-1.1,57.4-15.6,123.5-31.1,193.6
			c-19.4,87.9-39.4,178.7-30.4,251.3c-133.9,16.6-353-2.9-360.8-3.6c-6.1-1.2-12.4-1.1-18.7,0.5c-9.8,2.6-18,8.8-23.2,17.6
			c-5.1,8.8-6.5,19-4,28.8c2.1,8.1,7.3,14.9,14.5,19.1c5.2,3,11.1,4.5,16.9,4.3h35.2C363.5,819.5,354.5,826.1,343.8,828.9z
			 M356.3,784.7l19.6,0c0.4,5.6-0.4,11.2-2.2,16.5h-21.4c2.4-3.3,3.8-7.1,4.3-10.6C356.8,788.5,356.7,786.5,356.3,784.7z M348,775.6
			C348,775.6,348,775.6,348,775.6c-2.1,0-3.8,1.4-4.4,3.4c-0.5,2,0.4,4.1,2.2,5.1c2,1.1,2,3.9,1.8,5.4c-0.6,4.3-3.9,9.7-9,11
			c-1.5,0.4-3.1,0.6-4.7,0.7h-2c-3.5-0.2-7-1.2-10.2-3c-5.1-3-8.8-7.8-10.3-13.6c-2-7.5-0.9-15.3,3-21.9
			c3.9-6.7,10.2-11.4,17.6-13.4c2.7-0.7,5.5-1.1,8.2-1.1c6.5,0,12.8,2,18.5,5.8c7.4,5,13.1,12.9,15.5,21.6L348,775.6z M753,830.8
			c-4.9-1.3-36.6-9.1-99.4-13.4c-57.8-3.9-153.3-5.2-286.8,9.4c4.3-3.7,8.1-8.2,11.1-13.3c1.1-2,2.1-4,3-6c0,0,0-0.1,0.1-0.2
			c4.4-10.5,5.3-22.1,2.3-33.3c-2.3-8.9-7.3-17.1-14.1-23.3c27.2,2.1,77,5.6,133.3,7.4c88.7,2.9,159.6,0.8,211.6-6
			c0.1,0,0.1,0,0.2,0c0.2,0,0.4,0,0.6,0c0.3,0,0.5-0.1,0.8-0.2c13.7-1.8,26.2-4,37.2-6.6c23.4,0.3,42.3,19.4,42.3,42.8
			C795.2,811.5,776.3,830.5,753,830.8z"/>
		<path class="st3" d="M660.7,343.3L597.8,390l-2.2,101.3l58.9-2.8L660.7,343.3 M588.9,396.6l-30.3,22.6l-0.6,73.9l29.2-1.4
			L588.9,396.6 M557.9,503.2l-0.6,69.7l27.9,19.9l1.7-88.2L557.9,503.2 M595.3,504.9l-2,93.5l54.8,39.1l5.6-129.8L595.3,504.9
			 M392.8,308.5l17,356.5h250l0-0.2l-108.7-86.1l1-166.2l124.7-103.8l0-0.3H392.8 M675.5,679.5H394.1l-21-389.9h323.5L675.5,679.5"
			/>
	</g>
</g>
<g id="Guides" class="st4">
</g>
</svg>
