<?xml version="1.0" encoding="utf-8"?>
<!-- Generator: Adobe Illustrator 24.3.0, SVG Export Plug-In . SVG Version: 6.00 Build 0)  -->
<svg version="1.1" xmlns="http://www.w3.org/2000/svg" xmlns:xlink="http://www.w3.org/1999/xlink" x="0px" y="0px"
	 viewBox="0 0 1000 1000" style="enable-background:new 0 0 1000 1000;" xml:space="preserve">
<style type="text/css">
	.st0{fill:#BF9D3B;}
	.st1{fill:#D9C486;}
	.st2{enable-background:new    ;}
	.st3{clip-path:url(#SVGID_2_);}
	.st4{fill:#290403;}
	.st5{fill:#62288B;}
	.st6{display:none;}
</style>
<g id="Your_design">
	<g>
		<path class="st0" d="M338.4,384.1c-0.8,0-1.5,0-2.3-0.1c-8.3-0.8-15.8-4.7-21.1-11.1c-5.3-6.4-7.8-14.5-7.1-22.8
			c1-10.7,6.4-20.7,14.7-27.5c6.9-5.5,15-8.5,23.6-8.5c1.5,0,3,0.1,4.5,0.3l0.1,0c13.3,1.5,20.9,5.6,27.1,14.3
			c6.7,9.5,10,23.2,10.2,41.9l0,1.4l-1.4,0c-0.9,0-1.7,0-2.5,0c-9.4,0-15.3,2.1-22.4,5.7l-4.4,2.3l2.7-4.1c0.3-0.5,1.4-2.4,1.8-3.6
			l0-0.1l0-0.1c0.2-0.5,0.6-1.5,0.7-1.8c3.5-10.4,1.8-23.2-4.3-31.1c-3.7-4.9-8.6-7.4-14.2-7.4c-1.5,0-3.1,0.2-4.6,0.6
			c-5.8,1.4-9.8,4.3-12,8.7c-4.6,9,0.3,20.8,0.5,21.3l0.5,1.2l1.3-0.1c0.7-0.1,17.2-1.7,29.3-6l1.7-0.6l0,1.8
			c0.1,4.6-0.8,9-2.4,12.7l-0.7,1.6c-1.1,2.5-2.4,4.3-3.9,5.5c-3.1,2.5-6.7,4.3-10.6,5.1c-0.3,0.1-0.6,0.1-0.7,0.1l0,0l-0.1,0
			C341.2,384,339.8,384.1,338.4,384.1z"/>
		<path class="st0" d="M330.8,358.7c-1.1-3.7-2.6-10.6,0.1-16c1.8-3.4,4.9-5.7,9.6-6.8c1.3-0.3,2.5-0.5,3.7-0.5
			c5.6,0,9.3,3.3,11.4,6c2.2,2.8,3.8,6.5,4.6,10.6l0.2,1.1l-1,0.4c-9.2,3.6-22.2,5.5-27.4,6.1l-1.1,0.1L330.8,358.7z"/>
		<path class="st1" d="M626.4,313.6c-64.7,19.8-152.7,23.4-255.9,2.5c3.3,2.4,55.6,41.2,3.7,195.2c-25.1,74.5-42.3,155.6-20,191.6
			c6.1,9.7,14.8,15.8,26.6,18.5c3.6,0.8,7.9,0.6,13.1-0.8c6.5-1.7,12.1-5.8,15.7-11.5h-21.6c-3.6,0.1-7.2-0.7-10.4-2.6
			c-4.4-2.6-7.6-6.8-8.9-11.7c-1.6-6-0.7-12.3,2.4-17.7c3.1-5.4,8.2-9.2,14.2-10.8c3.8-1,7.7-1.1,11.5-0.3
			c4.8,0.4,140.1,12.8,222.4,2.7C608.9,621,615.6,568,629,514.3C661.9,382.8,653,332.2,626.4,313.6z M593.1,623.3H430.3l-13-230.3
			h186.9L593.1,623.3z"/>
		<path class="st0" d="M396.5,704.8l1.5-2.1c1.3-1.8,2.1-3.9,2.4-5.9c0.1-1.1,0.1-2.2-0.1-3.2l-0.4-1.6l14.9,0l0.1,1.2
			c0.2,3.6-0.3,7.2-1.4,10.7l-0.3,0.9H396.5z"/>
		<path class="st0" d="M386.5,704.8c-2.5-0.1-4.8-0.8-6.9-2c-3.5-2-5.9-5.3-6.9-9.1c-1.3-4.9-0.6-10.1,2-14.5
			c2.6-4.4,6.7-7.5,11.6-8.8c1.8-0.5,3.6-0.7,5.4-0.7c4.3,0,8.4,1.3,12.1,3.8c4.8,3.2,8.5,8.4,10.1,14l0.5,1.7l-17.9,0
			c-0.7,0-1.3,0.5-1.4,1.1c-0.2,0.6,0.1,1.3,0.7,1.7c1.4,0.8,2,2.4,1.8,4.6c-0.4,3.2-2.8,6.9-6.5,7.9c-1,0.3-2.1,0.4-3.1,0.5l0,0
			H386.5z"/>
		<path class="st1" d="M645.5,721.8c-3-0.8-22.5-5.6-61.1-8.2c-35.5-2.4-94.2-3.2-176.4,5.8c2.7-2.3,5-5,6.8-8.2
			c0.7-1.2,1.3-2.4,1.9-3.7c0,0,0-0.1,0-0.1c2.7-6.5,3.2-13.6,1.4-20.5c-1.4-5.5-4.5-10.5-8.7-14.3c16.7,1.3,47.3,3.4,82,4.5
			c54.5,1.8,98.2,0.5,130.2-3.7c0,0,0.1,0,0.1,0c0.1,0,0.3,0,0.4,0c0.2,0,0.3-0.1,0.5-0.1c8.5-1.1,16.1-2.5,22.9-4
			c14.4,0.2,20.7,11.9,20.7,26.3C666.2,709.8,659.9,721.6,645.5,721.8z"/>
		<g>
			<g class="st2">
				<defs>
					<polygon id="SVGID_1_" class="st2" points="411.8,388.9 424.8,628.7 597.8,628.7 610.8,388.9 					"/>
				</defs>
				<clipPath id="SVGID_2_">
					<use xlink:href="#SVGID_1_"  style="overflow:visible;"/>
				</clipPath>
				<g class="st3">
					<path class="st4" d="M588.7,421.9l-38.7,28.7l-1.4,62.3l36.2-1.7L588.7,421.9 M544.6,454.7l-18.6,13.9l-0.4,45.5l17.9-0.9
						L544.6,454.7 M525.5,520.2l-0.4,42.9l17.2,12.2l1-54.3L525.5,520.2 M548.5,521.3l-1.3,57.5l33.7,24l3.4-79.8L548.5,521.3
						 M424,400.6l10.4,219.2h153.7l0-0.1l-66.9-52.9l0.6-102.2l76.7-63.8l0-0.2H424 M597.8,628.7H424.8l-12.9-239.8h198.9
						L597.8,628.7"/>
				</g>
			</g>
		</g>
		<path class="st5" d="M476,423.6l2.8,8.7c2,6.2,6.9,11.1,13.1,13.1l8.7,2.8l-8.7,2.8c-6.2,2-11.1,6.9-13.1,13.1l-2.8,8.7l-2.8-8.7
			c-2-6.2-6.9-11.1-13.1-13.1l-8.7-2.8l8.7-2.8c6.2-2,11.1-6.9,13.1-13.1L476,423.6z"/>
		<path class="st5" d="M476.6,552.8l1.8,5.6c1.3,4,4.4,7.1,8.3,8.3l5.6,1.8l-5.6,1.8c-4,1.3-7.1,4.4-8.3,8.3l-1.8,5.6l-1.8-5.6
			c-1.3-4-4.4-7.1-8.3-8.3l-5.6-1.8l5.6-1.8c4-1.3,7.1-4.4,8.3-8.3L476.6,552.8z"/>
		<path class="st4" d="M645.2,663.7c-0.2,0-0.4,0-0.6,0.1c-6.2,1.4-13.1,2.7-20.4,3.7c-5.4-43.7,6.8-99,18.6-152.6
			c9.6-43.3,18.6-84.3,19.2-120.1c0.4-19.5-1.8-35.5-6.6-49c-5.4-15.1-14.4-27.2-26.6-35.9c-0.6-0.4-1.2-0.6-1.9-0.5
			c-97.8,10.5-179.4,11.9-275.4,0.2c-11.4-1.4-22.7,1.9-31.9,9.3c-9.4,7.6-15.4,18.8-16.5,30.9c-0.9,9.6,2,19,8.2,26.4
			c6.2,7.4,14.9,12,24.5,12.9c3,0.3,5.9,0,8.8-0.5c20-3.7,21.5-12.5,42.5-11.7c-0.2,7.8-0.8,16.3-1.9,25.6
			c-3.9,32-13,70.5-21.8,107.6c-9.1,38.4-18.5,78.2-22.6,112.4c-4.8,39.5-2,66,8.8,83.4c6.8,10.9,16.9,18,30.1,21
			c1.8,0.4,3.7,0.6,5.7,0.6c2,0,4.1-0.2,6.3-0.6c90.6-10.9,154.5-10.2,192.2-7.7c40.8,2.7,60.5,8.1,60.7,8.1
			c0.2,0.1,0.5,0.1,0.7,0.1c17.6,0,31.9-14.3,31.9-31.8C677,678,662.7,663.7,645.2,663.7z M361.4,376.6c0.3-0.5,1.5-2.5,2-3.9
			c0.3-0.7,0.8-2,0.8-2c3.6-10.6,1.9-23.9-4.5-32.3c-5.1-6.6-12.2-9.2-20.2-7.3c-6.1,1.5-10.5,4.6-12.9,9.3
			c-4.8,9.5,0.3,21.9,0.5,22.4l0.9,2.1l2.3-0.2c0.8-0.1,17.4-1.7,29.6-6.1c0.1,4.3-0.7,8.5-2.3,12.2l-0.7,1.7c-0.9,2-2,3.8-3.5,5
			c-2.9,2.5-6.4,4.1-10,4.9c-0.4,0.1-0.7,0.1-0.8,0.1c0,0,0,0,0,0c-2,0.4-4.1,0.4-6.2,0.3c-7.9-0.7-15.1-4.5-20.2-10.7
			c-5.1-6.1-7.5-13.9-6.8-21.8c1-10.4,6.1-20,14.2-26.6c7.8-6.3,17.4-9.1,27.2-7.9c0,0,0,0,0,0c13.2,1.5,20.4,5.4,26.3,13.8
			c6.5,9.2,9.8,22.5,10,41.2C376,370.4,369.5,372.4,361.4,376.6z M359.1,352.3c-9,3.5-21.8,5.4-27.1,6c-1-3.4-2.5-10,0.1-15.1
			c1.6-3.1,4.4-5.1,8.8-6.1c1.2-0.3,2.4-0.4,3.4-0.4c5,0,8.4,2.9,10.4,5.5C356.8,345,358.3,348.5,359.1,352.3z M393.9,720.6
			c-5.2,1.4-9.5,1.6-13.1,0.8c-11.8-2.7-20.5-8.8-26.6-18.5c-22.4-35.9-3.6-115,14.5-191.6c18.5-78.2,36-152,12.9-184.9
			c-2.5-3.5-5.4-6.5-8.7-8.9c78.9,7.8,164.1,7,253.5-2.5c21.2,15.5,30.8,40.8,30.1,79.6c-0.7,35.3-9.6,76-19.1,119
			c-11.9,54-24.2,109.9-18.7,154.5c-82.3,10.2-217.1-1.8-221.9-2.2c-3.8-0.8-7.6-0.7-11.5,0.3c-6,1.6-11.1,5.4-14.2,10.8
			c-3.1,5.4-4,11.7-2.4,17.7c1.3,5,4.5,9.1,8.9,11.7c3.2,1.9,6.8,2.8,10.4,2.6h21.6C405.9,714.8,400.4,718.9,393.9,720.6z
			 M401.5,693.4l12,0c0.2,3.5-0.2,6.9-1.4,10.2H399c1.5-2,2.4-4.4,2.6-6.5C401.8,695.7,401.8,694.5,401.5,693.4z M396.4,687.8
			C396.4,687.8,396.4,687.8,396.4,687.8c-1.3,0-2.4,0.9-2.7,2.1c-0.3,1.2,0.2,2.5,1.3,3.1c1.2,0.7,1.2,2.4,1.1,3.3
			c-0.3,2.7-2.4,6-5.5,6.8c-0.9,0.2-1.9,0.4-2.9,0.4h-1.3c-2.2-0.1-4.3-0.7-6.2-1.9c-3.2-1.8-5.4-4.8-6.3-8.3
			c-1.2-4.6-0.5-9.4,1.9-13.5c2.4-4.1,6.3-7,10.9-8.2c1.7-0.4,3.4-0.7,5-0.7c4,0,7.9,1.2,11.4,3.6c4.6,3.1,8,7.9,9.6,13.3
			L396.4,687.8z M645.5,721.8c-3-0.8-22.5-5.6-61.1-8.2c-35.5-2.4-94.2-3.2-176.4,5.8c2.7-2.3,5-5,6.8-8.2c0.7-1.2,1.3-2.4,1.9-3.7
			c0,0,0-0.1,0-0.1c2.7-6.5,3.2-13.6,1.4-20.5c-1.4-5.5-4.5-10.5-8.7-14.3c16.7,1.3,47.3,3.4,82,4.5c54.5,1.8,98.2,0.5,130.2-3.7
			c0,0,0.1,0,0.1,0c0.1,0,0.3,0,0.4,0c0.2,0,0.3-0.1,0.5-0.1c8.5-1.1,16.1-2.5,22.9-4c14.4,0.2,26,11.9,26,26.3
			C671.5,709.9,659.9,721.6,645.5,721.8z"/>
		<path class="st5" d="M395.3,299.6l-39.7-68.8l-6.8,3.9l37,64C389,299.1,392.1,299.4,395.3,299.6z"/>
		<path class="st5" d="M511,303.1V160h-7.8v143.3C505.8,303.2,508.4,303.1,511,303.1z"/>
		<path class="st5" d="M362.7,443.6l-104-60.8l-3.9,6.8l106.3,62.1C361.7,449,362.2,446.3,362.7,443.6z"/>
		<path class="st5" d="M625.3,295.1c0.6-0.1,1.2-0.1,1.8-0.1c1.5,0,3,0.2,4.4,0.6l48.7-84.4l-6.8-3.9l-50.9,88.1
			C623.5,295.3,624.4,295.2,625.3,295.1z"/>
		<path class="st5" d="M673.2,432.2l90-52l-3.9-6.8l-84.9,49C674.1,425.7,673.7,429,673.2,432.2z"/>
		<path class="st5" d="M348,511.8c0.2-1,0.5-2,0.7-3H183v7.8h163.8C347.3,515,347.6,513.4,348,511.8z"/>
		<path class="st5" d="M640.6,600.7l105.9,60.6l3.9-6.8l-108.6-62.1C641.4,595.2,641,597.9,640.6,600.7z"/>
		<path class="st5" d="M658,512.1c-0.4,1.9-0.9,3.9-1.3,5.8c-0.1,0.7-0.3,1.3-0.4,2H817v-7.8H658z"/>
		<path class="st5" d="M624,737.8l35.4,61.3l6.8-3.9l-32.1-55.6C631.5,739.1,628.1,738.4,624,737.8z"/>
		<path class="st5" d="M363.8,736.6l-41.5,71.3l6.8,3.9l42.2-72.4C368.7,738.6,366.2,737.6,363.8,736.6z"/>
		<path class="st5" d="M494.8,732.6V840h7.8V732.4C500,732.4,497.4,732.5,494.8,732.6z"/>
		<path class="st5" d="M328.9,602.9l-101.5,58.6l3.9,6.8l96.1-55.5C327.9,609.6,328.4,606.3,328.9,602.9z"/>
	</g>
</g>
<g id="Guides" class="st6">
</g>
</svg>
