<?xml version="1.0" encoding="utf-8"?>
<!-- Generator: Adobe Illustrator 24.3.0, SVG Export Plug-In . SVG Version: 6.00 Build 0)  -->
<svg version="1.1" xmlns="http://www.w3.org/2000/svg" xmlns:xlink="http://www.w3.org/1999/xlink" x="0px" y="0px"
	 viewBox="0 0 1000 1000" style="enable-background:new 0 0 1000 1000;" xml:space="preserve">
<style type="text/css">
	.st0{fill:#3B2358;}
	.st1{fill:#BF9D3B;}
	.st2{fill:#D9C486;}
	.st3{enable-background:new    ;}
	.st4{clip-path:url(#SVGID_2_);}
	.st5{fill:#290403;}
	.st6{fill:#62288B;}
	.st7{display:none;}
</style>
<g id="Your_design">
	<g>
		<g>
			<g>
				<path class="st0" d="M444.2,472.6h-6.8v14.5c0,7.5,1.3,9,10.4,9v2.9h-26.6v-2.9c7.1-0.2,8.3-1.5,8.3-8.6v-35.1
					c0-7-1.1-8.3-7.5-8.6V441h23.7c13.8,0,21.8,5.4,21.8,14.5C467.4,466.1,461,472.6,444.2,472.6z M437.4,468.9h5.3
					c9.9,0,14.8-3.6,14.8-12.4c0-8.4-3.8-11.9-12-11.9h-6.9c-0.8,0-1.3,0.5-1.3,1.3V468.9z"/>
				<path class="st0" d="M511.3,478.7c0,12.2-9.7,21-21.2,21c-11.3,0-20.9-8.7-20.9-21c0-11.9,9.6-20.4,20.9-20.4
					C501.6,458.3,511.3,466.9,511.3,478.7z M477.8,478.8c0,10.4,4.8,17.1,12.4,17.1c7.7,0,12.7-6.8,12.7-17.1c0-10-5-16.9-12.7-16.9
					C482.7,461.9,477.8,468.7,477.8,478.8z"/>
				<path class="st0" d="M551.7,492.7c-3.6,4.4-9.6,7-16.3,7c-10.7,0-18.2-8.2-18.2-20.4c0-12.8,8.4-21,20.9-21
					c7.8,0,13.3,2.7,13.3,6.6c0,2-1.4,3.2-3.7,3.2c-1.8,0-2.7-0.5-4.6-3.1c-2-2.3-3.5-3.2-6.5-3.2c-7.1,0-10.8,5.6-10.8,16.3
					c0,11.4,4.2,17.6,12,17.6c4.1,0,7.8-1.6,11.6-5.3L551.7,492.7z"/>
				<path class="st0" d="M579.5,496.4c3.3,0,4.4-0.3,4.4-0.8c-0.1-0.8-1.7-3-4.1-6l-8-9.6l-2.8,2.6v4.4c0,7.8,1,9.1,7,9.3v2.6h-21.4
					v-2.6c6-0.2,7.2-1.7,7.2-8.8V456c0-7.6,0-11.3-0.9-12.7c-0.9-1.4-2.9-1.4-6.5-1.4v-2.6l14.5-2.9v41.4l7-6.9
					c4.5-4.4,6.7-6.4,6.7-7.5c0-1.1-2.2-1.8-6.1-1.8v-2.6h19.6v2.6c-3.8,0-5.2,0.8-8.9,4l-10.8,9.6l14.9,16.9c2.9,3.3,4.1,4.1,8,4.1
					v2.6h-19.8V496.4z"/>
				<path class="st0" d="M635.7,492c-4.4,5.3-9.5,7.8-15.9,7.8c-11.8,0-19.7-8.2-19.7-20.3c0-12.4,8.5-21.2,20.6-21.2
					c9.6,0,15.3,5.5,15.3,15.3c0,1.4-0.3,1.5-2.3,1.5h-24.8c-0.2,0.8-0.3,2-0.3,3.4c0,10.5,5.3,17.3,13.3,17.3c4.1,0,7.7-1.8,11.4-6
					L635.7,492z M623.3,471.7c4.1,0,4.5-0.3,4.5-2.1c0-4.6-3.2-7.6-8.3-7.6c-5.3,0-8.8,3.3-10.1,9.7H623.3z"/>
				<path class="st0" d="M640.3,463.8V461c5.3-3.2,8.1-6,9.7-10.2h2.2v9.5h10.1v3.5h-10.1v22.9c0,7.1,1.2,9.3,5.2,9.3
					c2.5,0,4.1-1,5.8-3.5l1.9,1.4c-1.4,3.7-5,5.7-10.1,5.7c-6.6,0-10.2-3.3-10.2-9.2v-26.7H640.3z"/>
				<path class="st0" d="M718,499h-48.7v-2.9c7.1-0.2,8.3-1.5,8.3-8.6v-35.1c0-7-1.1-8.3-7.5-8.6V441H693v2.9
					c-6.5,0.2-7.5,1.5-7.5,9.1v32.5c0,8.4,3,10.2,13.4,10.2c11.5,0,15.1-2.1,17.3-11.4h2.9L718,499z"/>
				<path class="st0" d="M766,478.7c0,12.2-9.7,21-21.2,21c-11.3,0-20.9-8.7-20.9-21c0-11.9,9.6-20.4,20.9-20.4
					C756.3,458.3,766,466.9,766,478.7z M732.5,478.8c0,10.4,4.8,17.1,12.4,17.1c7.7,0,12.7-6.8,12.7-17.1c0-10-5-16.9-12.7-16.9
					C737.4,461.9,732.5,468.7,732.5,478.8z"/>
				<path class="st0" d="M783.5,487c0,8.3,0.5,9,6.2,9.3v2.6h-20v-2.6c5.8-0.3,6.5-1.2,6.5-8.8v-8.8c0-13.7-0.2-14.1-6.6-14.1V462
					l13.2-2.9l1.1,9.3h0.3c2.7-6,8-10.2,13.1-10.2c3.2,0,5.2,1.7,5.2,4.3c0,2.4-1.6,3.8-4.4,3.8c-3.2,0-4.1-1.9-6-1.9
					c-2.7,0-5.7,3.9-7.2,9.2c-0.8,2.9-1.3,6.7-1.3,10.7V487z"/>
				<path class="st0" d="M839.7,492c-4.4,5.3-9.5,7.8-15.9,7.8c-11.8,0-19.7-8.2-19.7-20.3c0-12.4,8.5-21.2,20.6-21.2
					c9.6,0,15.3,5.5,15.3,15.3c0,1.4-0.3,1.5-2.3,1.5h-24.8c-0.2,0.8-0.3,2-0.3,3.4c0,10.5,5.3,17.3,13.3,17.3c4.1,0,7.7-1.8,11.4-6
					L839.7,492z M827.3,471.7c4.1,0,4.5-0.3,4.5-2.1c0-4.6-3.2-7.6-8.3-7.6c-5.3,0-8.8,3.3-10.1,9.7H827.3z"/>
			</g>
		</g>
		<g>
			<g>
				<path class="st0" d="M420.2,553.3h1.5c0.8,5,4.4,8,9.4,8c4,0,6.6-2.1,6.6-5.4c0-2.8-1.6-4.4-7.2-6.8c-6.8-3-8.9-5.3-8.9-9.5
					c0-5.1,3.8-8.7,9.2-8.7c2.4,0,4.4,0.7,6.6,2.4l1.1-1.9h0.9l0.5,8.2h-1.5c-1.3-4.5-3.9-6.7-7.4-6.7c-3.3,0-5.5,1.8-5.5,4.6
					c0,2.6,1.6,4.2,6.3,6.3c8.2,3.7,10.5,5.9,10.5,10.3c0,5.5-4.6,9.4-11.2,9.4c-3.1,0-5.5-0.8-8-2.9l-1.2,2h-0.9L420.2,553.3z"/>
				<path class="st0" d="M483.7,539.1H482c-0.4-4.8-2.3-6.1-7.1-6.1c-4.1,0-4.7,0.3-4.7,1.3v22.1c0,3.5,0.7,4.9,5.3,5.1v1.6h-15.6
					v-1.6c4.7-0.2,5.4-1.5,5.4-5.1v-22.1c0-0.9-0.5-1.3-4-1.3c-4.3,0-7.5,0.2-7.7,6.1h-1.5v-7.9h31.1L483.7,539.1z"/>
				<path class="st0" d="M522.9,550.2c0,8.7-3.3,13.2-11.9,13.2c-8.1,0-12.1-3-12.1-11.7v-10.9c0-4.1,0-6.1-1-7.1
					c-0.7-0.7-1.7-0.9-3.6-0.9v-1.6h14.1v1.6c-1.9,0-3,0.1-3.6,1c-0.7,1-0.9,3-0.9,7.1v11.2c0,5.6,2.2,8.8,8.3,8.8
					c5.5,0,8.2-3.1,8.2-9v-9.9c0-4.9-0.3-7.2-1.4-8.2c-0.7-0.7-1.9-0.8-3.6-0.8v-1.6h12v1.6c-1.7,0-2.8,0.2-3.5,1.1
					c-0.8,1.2-1,3.4-1,8V550.2z"/>
				<path class="st0" d="M538.2,563v-1.6c4.2-0.1,4.9-0.8,4.9-4.7v-19.2c0-3.8-0.6-4.5-4.1-4.7v-1.6h14.5c9.9,0,17.2,6.9,17.2,16.4
					c0,9-6.7,15.3-16.3,15.3H538.2z M548.2,533.3c-0.5,0-0.7,0.3-0.7,0.7v22.3c0,3.2,2,4.7,6.1,4.7c7.5,0,11.7-4.6,11.7-13.2
					c0-9.1-4.5-14.5-11.9-14.5H548.2z"/>
				<path class="st0" d="M589.8,555.2c0,5.4,0.6,6.1,4.5,6.2v1.6H581v-1.6c3.9-0.1,4.5-0.8,4.5-5.9v-16.7c0-4.7-0.6-5.8-4.1-5.9
					v-1.6h12.5v1.6c-3.5,0.1-4.1,1.2-4.1,6.2V555.2z"/>
				<path class="st0" d="M638.9,547.4c0,8.9-7.6,16-17.2,16c-9.6,0-17.2-7.1-17.2-16c0-9.3,7.5-16.5,17.2-16.5
					S638.9,538,638.9,547.4z M633.5,547.5c0-8.8-4.5-14.4-11.8-14.4s-11.8,5.6-11.8,14.4c0,8.4,4.5,13.6,11.8,13.6
					C628.9,561.1,633.5,555.9,633.5,547.5z"/>
				<path class="st0" d="M650.7,553.3h1.5c0.8,5,4.4,8,9.4,8c4,0,6.6-2.1,6.6-5.4c0-2.8-1.6-4.4-7.2-6.8c-6.8-3-8.9-5.3-8.9-9.5
					c0-5.1,3.8-8.7,9.2-8.7c2.4,0,4.4,0.7,6.6,2.4l1.1-1.9h0.9l0.5,8.2h-1.5c-1.3-4.5-3.9-6.7-7.4-6.7c-3.3,0-5.5,1.8-5.5,4.6
					c0,2.6,1.6,4.2,6.3,6.3c8.2,3.7,10.5,5.9,10.5,10.3c0,5.5-4.6,9.4-11.2,9.4c-3.1,0-5.5-0.8-8-2.9l-1.2,2h-0.9L650.7,553.3z"/>
			</g>
		</g>
		<g>
			<path class="st1" d="M217.5,457.1c-0.3,0-0.6,0-0.8,0c-3.1-0.3-5.8-1.7-7.8-4.1c-2-2.4-2.9-5.4-2.6-8.4c0.4-4,2.4-7.7,5.4-10.2
				c2.5-2,5.6-3.1,8.7-3.1c0.6,0,1.1,0,1.7,0.1l0,0c4.9,0.6,7.8,2.1,10,5.3c2.5,3.5,3.7,8.6,3.8,15.5l0,0.5l-0.5,0
				c-0.3,0-0.6,0-0.9,0c-3.5,0-5.7,0.8-8.3,2.1l-1.6,0.8l1-1.5c0.1-0.2,0.5-0.9,0.7-1.3l0,0l0,0c0.1-0.2,0.2-0.5,0.3-0.7
				c1.3-3.9,0.6-8.6-1.6-11.5c-1.4-1.8-3.2-2.8-5.3-2.8c-0.6,0-1.1,0.1-1.7,0.2c-2.1,0.5-3.6,1.6-4.4,3.2c-1.7,3.3,0.1,7.7,0.2,7.9
				l0.2,0.4l0.5,0c0.3,0,6.3-0.6,10.8-2.2l0.6-0.2l0,0.7c0,1.7-0.3,3.3-0.9,4.7l-0.3,0.6c-0.4,0.9-0.9,1.6-1.4,2
				c-1.1,0.9-2.5,1.6-3.9,1.9c-0.1,0-0.2,0-0.3,0l0,0l-0.1,0C218.5,457.1,218,457.1,217.5,457.1z"/>
			<path class="st1" d="M214.7,447.7c-0.4-1.4-1-3.9,0.1-5.9c0.7-1.3,1.8-2.1,3.6-2.5c0.5-0.1,0.9-0.2,1.4-0.2
				c2.1,0,3.5,1.2,4.2,2.2c0.8,1,1.4,2.4,1.7,3.9l0.1,0.4l-0.4,0.1c-3.4,1.3-8.2,2-10.1,2.3l-0.4,0L214.7,447.7z"/>
			<path class="st2" d="M324.1,431c-24,7.3-56.5,8.6-94.7,0.9c1.2,0.9,20.6,15.3,1.4,72.3c-9.3,27.6-15.7,57.6-7.4,70.9
				c2.2,3.6,5.5,5.8,9.9,6.8c1.3,0.3,2.9,0.2,4.8-0.3c2.4-0.6,4.5-2.1,5.8-4.2h-8c-1.3,0.1-2.7-0.3-3.9-1c-1.6-1-2.8-2.5-3.3-4.3
				c-0.6-2.2-0.3-4.6,0.9-6.6c1.2-2,3-3.4,5.3-4c1.4-0.4,2.9-0.4,4.2-0.1c1.8,0.2,51.8,4.7,82.3,1c-3.8-17.6-1.3-37.2,3.6-57.1
				C337.2,456.6,333.9,437.9,324.1,431z M311.7,545.6h-60.2l-4.8-85.2h69.2L311.7,545.6z"/>
			<path class="st1" d="M239,575.8l0.5-0.8c0.5-0.7,0.8-1.4,0.9-2.2c0.1-0.4,0-0.8,0-1.2l-0.1-0.6l5.5,0l0,0.5
				c0.1,1.3-0.1,2.7-0.5,4l-0.1,0.3H239z"/>
			<path class="st1" d="M235.3,575.8c-0.9,0-1.8-0.3-2.6-0.8c-1.3-0.7-2.2-1.9-2.6-3.4c-0.5-1.8-0.2-3.7,0.7-5.4
				c1-1.6,2.5-2.8,4.3-3.3c0.7-0.2,1.3-0.3,2-0.3c1.6,0,3.1,0.5,4.5,1.4c1.8,1.2,3.1,3.1,3.7,5.2l0.2,0.6l-6.6,0
				c-0.2,0-0.5,0.2-0.5,0.4c-0.1,0.2,0,0.5,0.3,0.6c0.5,0.3,0.8,0.9,0.6,1.7c-0.2,1.2-1,2.6-2.4,2.9c-0.4,0.1-0.8,0.2-1.2,0.2l0,0
				H235.3z"/>
			<path class="st2" d="M331.1,582.1c-1.1-0.3-8.3-2.1-22.6-3c-13.2-0.9-34.9-1.2-65.3,2.1c1-0.8,1.8-1.9,2.5-3
				c0.3-0.4,0.5-0.9,0.7-1.4c0,0,0,0,0,0c1-2.4,1.2-5,0.5-7.6c-0.5-2-1.7-3.9-3.2-5.3c6.2,0.5,17.5,1.3,30.3,1.7
				c20.2,0.7,36.3,0.2,48.2-1.4c0,0,0,0,0,0c0,0,0.1,0,0.1,0c0.1,0,0.1,0,0.2,0c3.1-0.4,6-0.9,8.5-1.5c5.3,0.1,7.7,4.4,7.7,9.7
				C338.8,577.7,336.5,582,331.1,582.1z"/>
			<g>
				<g class="st3">
					<defs>
						<polygon id="SVGID_1_" class="st3" points="244.7,458.9 249.5,547.6 313.5,547.6 318.3,458.9 						"/>
					</defs>
					<clipPath id="SVGID_2_">
						<use xlink:href="#SVGID_1_"  style="overflow:visible;"/>
					</clipPath>
					<g class="st4">
						<path class="st5" d="M310.1,471.1l-14.3,10.6l-0.5,23.1l13.4-0.6L310.1,471.1 M293.8,483.2l-6.9,5.1l-0.1,16.8l6.6-0.3
							L293.8,483.2 M286.7,507.5l-0.1,15.9l6.4,4.5l0.4-20.1L286.7,507.5 M295.2,507.9l-0.5,21.3l12.5,8.9l1.3-29.5L295.2,507.9
							 M249.2,463.2l3.9,81.1h56.9l0,0l-24.7-19.6l0.2-37.8l28.4-23.6l0-0.1H249.2 M313.5,547.6h-64l-4.8-88.7h73.6L313.5,547.6"/>
					</g>
				</g>
			</g>
			<path class="st6" d="M268.4,471.7l1,3.2c0.7,2.3,2.5,4.1,4.9,4.9l3.2,1l-3.2,1c-2.3,0.7-4.1,2.5-4.9,4.9l-1,3.2l-1-3.2
				c-0.7-2.3-2.5-4.1-4.9-4.9l-3.2-1l3.2-1c2.3-0.7,4.1-2.5,4.9-4.9L268.4,471.7z"/>
			<path class="st6" d="M268.6,519.5l0.7,2.1c0.5,1.5,1.6,2.6,3.1,3.1l2.1,0.7l-2.1,0.7c-1.5,0.5-2.6,1.6-3.1,3.1l-0.7,2.1l-0.7-2.1
				c-0.5-1.5-1.6-2.6-3.1-3.1l-2.1-0.7l2.1-0.7c1.5-0.5,2.6-1.6,3.1-3.1L268.6,519.5z"/>
			<path class="st5" d="M331,560.6c-0.1,0-0.2,0-0.2,0c-2.3,0.5-4.8,1-7.6,1.4c-2-16.2,2.5-36.6,6.9-56.5c3.5-16,6.9-31.2,7.1-44.5
				c0.1-7.2-0.7-13.1-2.5-18.1c-2-5.6-5.3-10.1-9.9-13.3c-0.2-0.1-0.5-0.2-0.7-0.2c-36.2,3.9-66.4,4.4-101.9,0.1
				c-4.2-0.5-8.4,0.7-11.8,3.4c-3.5,2.8-5.7,7-6.1,11.4c-0.3,3.6,0.7,7,3,9.8c2.3,2.7,5.5,4.4,9.1,4.8c1.1,0.1,2.2,0,3.2-0.2
				c7.4-1.4,8-4.6,15.7-4.3c-0.1,2.9-0.3,6-0.7,9.5c-1.4,11.8-4.8,26.1-8,39.8c-3.4,14.2-6.8,28.9-8.4,41.6
				c-1.8,14.6-0.7,24.4,3.3,30.9c2.5,4,6.3,6.7,11.1,7.8c0.7,0.2,1.4,0.2,2.1,0.2c0.7,0,1.5-0.1,2.3-0.2c33.5-4,57.2-3.8,71.1-2.9
				c15.1,1,22.4,3,22.5,3c0.1,0,0.2,0,0.3,0c6.5,0,11.8-5.3,11.8-11.8C342.8,565.9,337.5,560.6,331,560.6z M226,454.3
				c0.1-0.2,0.5-0.9,0.7-1.4c0.1-0.2,0.3-0.7,0.3-0.7c1.3-3.9,0.7-8.9-1.7-12c-1.9-2.4-4.5-3.4-7.5-2.7c-2.3,0.5-3.9,1.7-4.8,3.5
				c-1.8,3.5,0.1,8.1,0.2,8.3l0.3,0.8l0.8-0.1c0.3,0,6.4-0.6,11-2.3c0,1.6-0.3,3.2-0.9,4.5l-0.3,0.6c-0.3,0.7-0.8,1.4-1.3,1.9
				c-1.1,0.9-2.4,1.5-3.7,1.8c-0.2,0-0.3,0-0.3,0.1c0,0,0,0,0,0c-0.7,0.1-1.5,0.2-2.3,0.1c-2.9-0.3-5.6-1.7-7.5-3.9
				c-1.9-2.3-2.8-5.1-2.5-8.1c0.4-3.8,2.3-7.4,5.3-9.8c2.9-2.3,6.5-3.4,10-2.9c0,0,0,0,0,0c4.9,0.6,7.5,2,9.7,5.1
				c2.4,3.4,3.6,8.3,3.7,15.2C231.4,452,229,452.8,226,454.3z M225.2,445.3c-3.3,1.3-8.1,2-10,2.2c-0.4-1.2-0.9-3.7,0-5.6
				c0.6-1.1,1.6-1.9,3.3-2.3c0.5-0.1,0.9-0.2,1.3-0.2c1.9,0,3.1,1.1,3.9,2C224.3,442.6,224.9,443.9,225.2,445.3z M238,581.6
				c-1.9,0.5-3.5,0.6-4.8,0.3c-4.4-1-7.6-3.2-9.9-6.8c-8.3-13.3-1.3-42.6,5.4-70.9c6.8-28.9,13.3-56.3,4.8-68.4
				c-0.9-1.3-2-2.4-3.2-3.3c29.2,2.9,60.7,2.6,93.8-0.9c7.9,5.7,11.4,15.1,11.1,29.5c-0.2,13.1-3.6,28.1-7.1,44.1
				c-4.4,20-9,40.7-6.9,57.2c-30.5,3.8-80.3-0.7-82.1-0.8c-1.4-0.3-2.8-0.3-4.2,0.1c-2.2,0.6-4.1,2-5.3,4c-1.2,2-1.5,4.3-0.9,6.6
				c0.5,1.8,1.7,3.4,3.3,4.3c1.2,0.7,2.5,1,3.9,1h8C242.5,579.5,240.4,581,238,581.6z M240.9,571.6l4.5,0c0.1,1.3-0.1,2.6-0.5,3.8
				h-4.9c0.5-0.8,0.9-1.6,1-2.4C241,572.4,241,572,240.9,571.6z M239,569.5C239,569.5,239,569.5,239,569.5c-0.5,0-0.9,0.3-1,0.8
				c-0.1,0.5,0.1,0.9,0.5,1.2c0.5,0.3,0.5,0.9,0.4,1.2c-0.1,1-0.9,2.2-2,2.5c-0.4,0.1-0.7,0.1-1.1,0.2h-0.5c-0.8,0-1.6-0.3-2.3-0.7
				c-1.2-0.7-2-1.8-2.3-3.1c-0.4-1.7-0.2-3.5,0.7-5c0.9-1.5,2.3-2.6,4-3c0.6-0.2,1.2-0.2,1.9-0.2c1.5,0,2.9,0.4,4.2,1.3
				c1.7,1.1,3,2.9,3.5,4.9L239,569.5z M331.1,582.1c-1.1-0.3-8.3-2.1-22.6-3c-13.2-0.9-34.9-1.2-65.3,2.1c1-0.8,1.8-1.9,2.5-3
				c0.3-0.4,0.5-0.9,0.7-1.4c0,0,0,0,0,0c1-2.4,1.2-5,0.5-7.6c-0.5-2-1.7-3.9-3.2-5.3c6.2,0.5,17.5,1.3,30.3,1.7
				c20.2,0.7,36.3,0.2,48.2-1.4c0,0,0,0,0,0c0,0,0.1,0,0.1,0c0.1,0,0.1,0,0.2,0c3.1-0.4,6-0.9,8.5-1.5c5.3,0.1,9.6,4.4,9.6,9.7
				C340.7,577.7,336.5,582,331.1,582.1z"/>
			<path class="st6" d="M238.5,425.9l-14.7-25.4l-2.5,1.4l13.7,23.7C236.2,425.7,237.4,425.8,238.5,425.9z"/>
			<path class="st6" d="M281.4,427.1v-53h-2.9v53C279.4,427.2,280.4,427.2,281.4,427.1z"/>
			<path class="st6" d="M226.5,479.1L188,456.6l-1.4,2.5l39.3,23C226.1,481.1,226.3,480.1,226.5,479.1z"/>
			<path class="st6" d="M323.7,424.2c0.2,0,0.4,0,0.7,0c0.6,0,1.1,0.1,1.6,0.2l18-31.2l-2.5-1.4l-18.8,32.6
				C323,424.2,323.3,424.2,323.7,424.2z"/>
			<path class="st6" d="M341.4,474.9l33.3-19.2l-1.4-2.5l-31.4,18.1C341.7,472.5,341.6,473.7,341.4,474.9z"/>
			<path class="st6" d="M221.1,504.4c0.1-0.4,0.2-0.7,0.3-1.1H160v2.9h60.6C220.8,505.6,220.9,505,221.1,504.4z"/>
			<path class="st6" d="M329.3,537.3l39.2,22.4l1.4-2.5l-40.2-23C329.6,535.2,329.5,536.2,329.3,537.3z"/>
			<path class="st6" d="M335.8,504.5c-0.2,0.7-0.3,1.4-0.5,2.2c-0.1,0.2-0.1,0.5-0.2,0.7h59.5v-2.9H335.8z"/>
			<path class="st6" d="M323.2,588l13.1,22.7l2.5-1.4l-11.9-20.6C326,588.5,324.7,588.2,323.2,588z"/>
			<path class="st6" d="M226.9,587.5l-15.4,26.4l2.5,1.4l15.6-26.8C228.7,588.3,227.8,587.9,226.9,587.5z"/>
			<path class="st6" d="M275.4,586.1v39.7h2.9V586C277.3,586,276.3,586.1,275.4,586.1z"/>
			<path class="st6" d="M214,538.1l-37.5,21.7l1.4,2.5l35.6-20.5C213.6,540.5,213.8,539.3,214,538.1z"/>
		</g>
	</g>
</g>
<g id="Guides" class="st7">
</g>
</svg>
