<?xml version="1.0" encoding="utf-8"?>
<!-- Generator: Adobe Illustrator 24.3.0, SVG Export Plug-In . SVG Version: 6.00 Build 0)  -->
<svg version="1.1" xmlns="http://www.w3.org/2000/svg" xmlns:xlink="http://www.w3.org/1999/xlink" x="0px" y="0px"
	 viewBox="0 0 1000 1000" style="enable-background:new 0 0 1000 1000;" xml:space="preserve">
<style type="text/css">
	.st0{fill:#3B2358;}
	.st1{fill:#BF9D3B;}
	.st2{fill:#D9C486;}
	.st3{enable-background:new    ;}
	.st4{clip-path:url(#SVGID_2_);}
	.st5{fill:#290403;}
	.st6{fill:#62288B;}
	.st7{display:none;}
</style>
<g id="Your_design">
	<g>
		<g>
			<g>
				<path class="st0" d="M197.3,671.3h-11v23.6c0,12.1,2.1,14.6,16.9,14.6v4.6H160v-4.6c11.5-0.4,13.5-2.4,13.5-13.9v-57
					c0-11.4-1.7-13.5-12.2-13.9v-4.6h38.4c22.4,0,35.3,8.8,35.3,23.6C235,660.7,224.6,671.3,197.3,671.3z M186.3,665.2h8.7
					c16.1,0,24.1-5.9,24.1-20.2c0-13.7-6.1-19.3-19.4-19.3h-11.3c-1.3,0-2.1,0.9-2.1,2.1V665.2z"/>
				<path class="st0" d="M306.2,681.2c0,19.8-15.8,34.1-34.4,34.1c-18.3,0-33.9-14.2-33.9-34.1c0-19.3,15.5-33.1,33.9-33.1
					C290.4,648.1,306.2,662,306.2,681.2z M251.8,681.3c0,16.9,7.8,27.8,20.1,27.8c12.5,0,20.5-11,20.5-27.8
					c0-16.3-8.2-27.4-20.5-27.4C259.7,653.9,251.8,664.9,251.8,681.3z"/>
				<path class="st0" d="M371.9,704c-5.9,7.1-15.7,11.4-26.4,11.4c-17.4,0-29.5-13.3-29.5-33.1c0-20.8,13.7-34.1,34-34.1
					c12.6,0,21.5,4.4,21.5,10.8c0,3.2-2.3,5.1-6,5.1c-2.9,0-4.4-0.9-7.5-5c-3.2-3.8-5.7-5.1-10.5-5.1c-11.5,0-17.6,9.2-17.6,26.5
					c0,18.6,6.8,28.6,19.4,28.6c6.7,0,12.7-2.6,18.8-8.6L371.9,704z"/>
				<path class="st0" d="M417,709.8c5.4,0,7.1-0.5,7.1-1.3c-0.1-1.2-2.8-4.9-6.7-9.7l-13-15.7l-4.5,4.3v7.2
					c0,12.6,1.6,14.8,11.4,15.2v4.3h-34.7v-4.3c9.8-0.4,11.7-2.7,11.7-14.3v-51.2c0-12.4,0-18.3-1.5-20.5c-1.5-2.3-4.8-2.3-10.5-2.3
					v-4.2l23.6-4.6v67.1l11.4-11.1c7.3-7.2,10.9-10.4,10.9-12.1c0-1.7-3.5-2.9-9.9-2.9v-4.3H444v4.3c-6.1,0-8.4,1.2-14.4,6.5
					L412,675.7l24.2,27.4c4.6,5.4,6.7,6.7,13,6.7v4.3H417V709.8z"/>
				<path class="st0" d="M508.3,702.7c-7.1,8.6-15.4,12.6-25.8,12.6c-19.1,0-32-13.3-32-32.9c0-20.1,13.8-34.4,33.5-34.4
					c15.7,0,24.8,8.9,24.8,24.8c0,2.2-0.5,2.4-3.8,2.4h-40.2c-0.4,1.3-0.5,3.3-0.5,5.5c0,17,8.6,28.1,21.6,28.1
					c6.7,0,12.5-2.9,18.6-9.7L508.3,702.7z M488.1,669.7c6.6,0,7.3-0.5,7.3-3.4c0-7.5-5.3-12.4-13.5-12.4c-8.7,0-14.3,5.4-16.4,15.8
					H488.1z"/>
				<path class="st0" d="M515.8,657v-4.5c8.7-5.1,13.2-9.7,15.8-16.6h3.5v15.4h16.4v5.7h-16.4v37.2c0,11.5,2,15.2,8.4,15.2
					c4,0,6.7-1.6,9.4-5.6l3.1,2.3c-2.3,6-8.1,9.3-16.4,9.3c-10.8,0-16.5-5.4-16.5-14.9V657H515.8z"/>
				<path class="st0" d="M641.9,714.1h-79v-4.6c11.5-0.4,13.5-2.4,13.5-13.9v-57c0-11.4-1.7-13.5-12.2-13.9v-4.6h37.2v4.6
					c-10.5,0.4-12.1,2.4-12.1,14.8v52.7c0,13.7,4.9,16.5,21.8,16.5c18.7,0,24.6-3.4,28.1-18.6h4.6L641.9,714.1z"/>
				<path class="st0" d="M719.9,681.2c0,19.8-15.8,34.1-34.4,34.1c-18.3,0-33.9-14.2-33.9-34.1c0-19.3,15.5-33.1,33.9-33.1
					C704.1,648.1,719.9,662,719.9,681.2z M665.5,681.3c0,16.9,7.8,27.8,20.1,27.8c12.5,0,20.5-11,20.5-27.8
					c0-16.3-8.2-27.4-20.5-27.4C673.4,653.9,665.5,664.9,665.5,681.3z"/>
				<path class="st0" d="M748.2,694.7c0,13.5,0.7,14.6,10,15.2v4.3h-32.5v-4.3c9.4-0.5,10.5-2,10.5-14.3v-14.3
					c0-22.3-0.2-22.9-10.8-22.9V654l21.4-4.6l1.7,15.2h0.5c4.4-9.8,13-16.5,21.3-16.5c5.3,0,8.4,2.7,8.4,7c0,3.9-2.6,6.2-7.1,6.2
					c-5.1,0-6.7-3.1-9.7-3.1c-4.4,0-9.3,6.4-11.7,14.9c-1.3,4.6-2.1,10.9-2.1,17.4V694.7z"/>
				<path class="st0" d="M839.5,702.7c-7.1,8.6-15.4,12.6-25.8,12.6c-19.1,0-32-13.3-32-32.9c0-20.1,13.8-34.4,33.5-34.4
					c15.7,0,24.8,8.9,24.8,24.8c0,2.2-0.5,2.4-3.8,2.4H796c-0.4,1.3-0.5,3.3-0.5,5.5c0,17,8.6,28.1,21.6,28.1
					c6.7,0,12.5-2.9,18.6-9.7L839.5,702.7z M819.3,669.7c6.6,0,7.3-0.5,7.3-3.4c0-7.5-5.3-12.4-13.5-12.4c-8.7,0-14.3,5.4-16.4,15.8
					H819.3z"/>
			</g>
		</g>
		<g>
			<g>
				<path class="st0" d="M288.4,802.3h2.5c1.3,8.1,7.2,13,15.2,13c6.6,0,10.7-3.4,10.7-8.7c0-4.6-2.7-7.2-11.7-11.1
					c-11.1-4.9-14.5-8.6-14.5-15.5c0-8.3,6.2-14.2,15-14.2c3.9,0,7.2,1.2,10.6,4l1.7-3h1.5l0.7,13.3h-2.5c-2.1-7.3-6.3-10.8-12-10.8
					c-5.4,0-8.9,2.9-8.9,7.4c0,4.2,2.6,6.8,10.2,10.2c13.3,6,17,9.6,17,16.7c0,9-7.4,15.2-18.2,15.2c-5.1,0-8.9-1.3-13.1-4.7
					l-1.9,3.3h-1.5L288.4,802.3z"/>
				<path class="st0" d="M391.5,779.2h-2.7c-0.6-7.8-3.7-9.9-11.4-9.9c-6.6,0-7.6,0.5-7.6,2.1v35.8c0,5.8,1.1,8,8.6,8.2v2.5h-25.3
					v-2.5c7.6-0.3,8.7-2.5,8.7-8.2v-35.8c0-1.5-0.9-2.1-6.6-2.1c-7,0-12.2,0.4-12.5,9.9h-2.5v-12.8h50.6L391.5,779.2z"/>
				<path class="st0" d="M455.3,797.3c0,14.1-5.3,21.4-19.3,21.4c-13.2,0-19.7-4.9-19.7-18.9v-17.7c0-6.6-0.1-9.9-1.6-11.6
					c-1.1-1.1-2.8-1.5-5.8-1.5v-2.5h22.8v2.5c-3,0-4.8,0.2-5.9,1.6c-1.2,1.6-1.5,4.9-1.5,11.4v18.2c0,9.1,3.5,14.3,13.5,14.3
					c8.9,0,13.4-5.1,13.4-14.7v-16.1c0-8-0.5-11.7-2.2-13.4c-1.2-1.1-3.1-1.3-5.8-1.3v-2.5h19.4v2.5c-2.8,0-4.6,0.3-5.7,1.8
					c-1.3,1.9-1.7,5.6-1.7,12.9V797.3z"/>
				<path class="st0" d="M480.1,818v-2.5c6.8-0.2,8-1.3,8-7.6v-31.2c0-6.2-0.9-7.4-6.7-7.6v-2.5H505c16.1,0,27.9,11.2,27.9,26.6
					c0,14.7-10.9,24.9-26.5,24.9H480.1z M496.3,769.7c-0.7,0-1.1,0.5-1.1,1.1v36.2c0,5.2,3.2,7.6,10,7.6c12.1,0,18.9-7.4,18.9-21.5
					c0-14.8-7.4-23.5-19.3-23.5H496.3z"/>
				<path class="st0" d="M564.1,805.4c0,8.8,1,9.9,7.3,10.1v2.5h-21.7v-2.5c6.3-0.2,7.4-1.3,7.4-9.6v-27.2c0-7.6-0.9-9.4-6.7-9.6
					v-2.5h20.4v2.5c-5.8,0.2-6.6,2-6.6,10.1V805.4z"/>
				<path class="st0" d="M643.8,792.6c0,14.5-12.3,26-27.9,26c-15.5,0-27.9-11.5-27.9-26c0-15.1,12.2-26.8,27.9-26.8
					C631.6,765.8,643.8,777.5,643.8,792.6z M635.1,792.8c0-14.3-7.4-23.4-19.1-23.4c-11.8,0-19.1,9-19.1,23.4
					c0,13.6,7.4,22.2,19.1,22.2C627.7,815,635.1,806.4,635.1,792.8z"/>
				<path class="st0" d="M663.1,802.3h2.5c1.3,8.1,7.2,13,15.2,13c6.6,0,10.7-3.4,10.7-8.7c0-4.6-2.7-7.2-11.7-11.1
					c-11.1-4.9-14.5-8.6-14.5-15.5c0-8.3,6.2-14.2,15-14.2c3.9,0,7.2,1.2,10.6,4l1.7-3h1.5l0.7,13.3h-2.5c-2.1-7.3-6.3-10.8-12-10.8
					c-5.4,0-8.9,2.9-8.9,7.4c0,4.2,2.6,6.8,10.2,10.2c13.3,6,17,9.6,17,16.7c0,9-7.4,15.2-18.2,15.2c-5.1,0-8.9-1.3-13.1-4.7
					l-1.9,3.3h-1.5L663.1,802.3z"/>
			</g>
		</g>
		<g>
			<path class="st1" d="M395.8,316c-0.5,0-0.9,0-1.4-0.1c-5-0.5-9.5-2.8-12.7-6.7c-3.2-3.8-4.7-8.7-4.2-13.7
				c0.6-6.4,3.8-12.5,8.8-16.5c4.1-3.3,9-5.1,14.2-5.1c0.9,0,1.8,0.1,2.7,0.2l0.1,0c8,0.9,12.6,3.3,16.3,8.6c4,5.7,6,13.9,6.1,25.2
				l0,0.8l-0.8,0c-0.5,0-1,0-1.5,0c-5.6,0-9.2,1.3-13.4,3.4l-2.6,1.4l1.6-2.5c0.2-0.3,0.8-1.4,1.1-2.1l0,0l0,0
				c0.1-0.3,0.3-0.9,0.4-1.1c2.1-6.3,1.1-13.9-2.6-18.7c-2.2-2.9-5.2-4.5-8.5-4.5c-0.9,0-1.8,0.1-2.8,0.3c-3.5,0.8-5.9,2.6-7.2,5.2
				c-2.7,5.4,0.2,12.5,0.3,12.8l0.3,0.7l0.8-0.1c0.4,0,10.3-1,17.6-3.6l1-0.4l0,1.1c0,2.8-0.5,5.4-1.5,7.6l-0.4,1
				c-0.7,1.5-1.5,2.6-2.3,3.3c-1.8,1.5-4,2.6-6.4,3.1c-0.2,0-0.3,0.1-0.4,0.1l0,0l-0.1,0C397.6,315.9,396.7,316,395.8,316z"/>
			<path class="st1" d="M391.3,300.7c-0.7-2.2-1.6-6.4,0.1-9.6c1.1-2.1,3-3.4,5.8-4.1c0.8-0.2,1.5-0.3,2.2-0.3c3.4,0,5.6,2,6.9,3.6
				c1.3,1.7,2.3,3.9,2.8,6.3l0.1,0.6l-0.6,0.2c-5.5,2.2-13.4,3.3-16.5,3.7l-0.7,0.1L391.3,300.7z"/>
			<path class="st2" d="M568.9,273.6c-38.9,11.9-91.8,14-153.8,1.5c2,1.5,33.4,24.8,2.2,117.3c-15.1,44.8-25.4,93.5-12,115.1
				c3.6,5.9,8.9,9.5,16,11.1c2.2,0.5,4.8,0.3,7.9-0.5c3.9-1,7.3-3.5,9.4-6.9h-13c-2.2,0.1-4.3-0.4-6.3-1.6c-2.7-1.6-4.6-4.1-5.3-7
				c-0.9-3.6-0.4-7.4,1.5-10.6c1.9-3.2,4.9-5.5,8.6-6.5c2.3-0.6,4.6-0.7,6.9-0.2c2.9,0.3,84.2,7.7,133.7,1.6
				c-6.1-28.6-2.2-60.4,5.9-92.7C590.2,315.2,584.9,284.8,568.9,273.6z M548.9,459.7h-97.8l-7.8-138.4h112.3L548.9,459.7z"/>
			<path class="st1" d="M430.8,508.7l0.9-1.2c0.8-1.1,1.3-2.3,1.4-3.5c0.1-0.7,0.1-1.3-0.1-1.9l-0.2-1l8.9,0l0,0.7
				c0.1,2.2-0.2,4.3-0.9,6.4l-0.2,0.5H430.8z"/>
			<path class="st1" d="M424.8,508.7c-1.5-0.1-2.9-0.5-4.1-1.2c-2.1-1.2-3.6-3.2-4.2-5.5c-0.8-3-0.4-6.1,1.2-8.7
				c1.5-2.6,4-4.5,7-5.3c1.1-0.3,2.1-0.4,3.2-0.4c2.6,0,5.1,0.8,7.3,2.3c2.9,2,5.1,5,6.1,8.4l0.3,1l-10.8,0c-0.4,0-0.8,0.3-0.9,0.7
				c-0.1,0.4,0.1,0.8,0.4,1c0.8,0.5,1.2,1.5,1.1,2.8c-0.2,1.9-1.7,4.1-3.9,4.7c-0.6,0.2-1.2,0.3-1.9,0.3l0,0H424.8z"/>
			<path class="st2" d="M580.4,518.9c-1.8-0.5-13.5-3.4-36.7-4.9c-21.4-1.4-56.6-1.9-106,3.5c1.6-1.4,3-3,4.1-4.9
				c0.4-0.7,0.8-1.5,1.1-2.2c0,0,0,0,0-0.1c1.6-3.9,2-8.2,0.9-12.3c-0.9-3.3-2.7-6.3-5.2-8.6c10,0.8,28.5,2.1,49.3,2.7
				c32.8,1.1,59,0.3,78.2-2.2c0,0,0,0,0.1,0c0.1,0,0.2,0,0.2,0c0.1,0,0.2,0,0.3-0.1c5.1-0.7,9.7-1.5,13.8-2.4
				c8.6,0.1,12.5,7.1,12.5,15.8C592.8,511.7,589,518.8,580.4,518.9z"/>
			<g>
				<g class="st3">
					<defs>
						<polygon id="SVGID_1_" class="st3" points="440,318.9 447.7,463 551.7,463 559.5,318.9 						"/>
					</defs>
					<clipPath id="SVGID_2_">
						<use xlink:href="#SVGID_1_"  style="overflow:visible;"/>
					</clipPath>
					<g class="st4">
						<path class="st5" d="M546.3,338.7L523,356l-0.8,37.4l21.8-1L546.3,338.7 M519.7,358.4l-11.2,8.3l-0.2,27.3l10.8-0.5
							L519.7,358.4 M508.3,397.8l-0.2,25.8l10.3,7.4l0.6-32.6L508.3,397.8 M522.1,398.4l-0.8,34.6l20.3,14.4l2.1-48L522.1,398.4
							 M447.3,325.9l6.3,131.7h92.4l0-0.1l-40.2-31.8l0.4-61.4l46.1-38.3l0-0.1H447.3 M551.7,463h-104L440,318.9h119.5L551.7,463"/>
					</g>
				</g>
			</g>
			<path class="st6" d="M478.5,339.7l1.7,5.3c1.2,3.7,4.1,6.7,7.9,7.9l5.3,1.7l-5.3,1.7c-3.7,1.2-6.7,4.1-7.9,7.9l-1.7,5.3l-1.7-5.3
				c-1.2-3.7-4.1-6.7-7.9-7.9l-5.3-1.7l5.3-1.7c3.7-1.2,6.7-4.1,7.9-7.9L478.5,339.7z"/>
			<path class="st6" d="M478.9,417.3l1.1,3.3c0.8,2.4,2.6,4.2,5,5l3.3,1.1l-3.3,1.1c-2.4,0.8-4.2,2.6-5,5l-1.1,3.3l-1.1-3.3
				c-0.8-2.4-2.6-4.2-5-5l-3.3-1.1l3.3-1.1c2.4-0.8,4.2-2.6,5-5L478.9,417.3z"/>
			<path class="st5" d="M580.2,484c-0.1,0-0.3,0-0.4,0c-3.7,0.9-7.9,1.6-12.3,2.2c-3.2-26.3,4.1-59.5,11.2-91.7
				c5.7-26,11.2-50.7,11.6-72.2c0.2-11.7-1.1-21.3-4-29.4c-3.2-9.1-8.6-16.3-16-21.5c-0.3-0.2-0.7-0.3-1.1-0.3
				c-58.8,6.3-107.8,7.1-165.5,0.1c-6.9-0.8-13.7,1.1-19.1,5.6c-5.6,4.6-9.3,11.3-9.9,18.6c-0.5,5.8,1.2,11.4,4.9,15.9
				c3.7,4.5,8.9,7.2,14.7,7.7c1.8,0.2,3.6,0,5.3-0.3c12-2.2,12.9-7.5,25.5-7c-0.1,4.7-0.5,9.8-1.2,15.4
				c-2.3,19.2-7.8,42.3-13.1,64.7c-5.5,23.1-11.1,47-13.6,67.6c-2.9,23.8-1.2,39.7,5.3,50.1c4.1,6.6,10.2,10.8,18.1,12.6
				c1.1,0.2,2.2,0.4,3.4,0.4c1.2,0,2.4-0.1,3.8-0.4c54.4-6.6,92.8-6.2,115.5-4.6c24.5,1.6,36.4,4.9,36.5,4.9c0.1,0,0.3,0.1,0.4,0.1
				c10.6,0,19.1-8.6,19.1-19.1C599.3,492.6,590.7,484,580.2,484z M409.7,311.5c0.2-0.3,0.9-1.5,1.2-2.3c0.2-0.4,0.5-1.2,0.5-1.2
				c2.2-6.4,1.1-14.4-2.7-19.4c-3-4-7.4-5.5-12.1-4.4c-3.7,0.9-6.3,2.8-7.7,5.6c-2.9,5.7,0.2,13.1,0.3,13.4l0.5,1.3l1.4-0.1
				c0.5,0,10.4-1,17.8-3.7c0,2.6-0.4,5.1-1.4,7.3l-0.4,1c-0.5,1.2-1.2,2.3-2.1,3c-1.8,1.5-3.8,2.5-6,2.9c-0.3,0-0.4,0.1-0.5,0.1
				c0,0,0,0,0,0c-1.2,0.2-2.5,0.3-3.7,0.2c-4.8-0.4-9.1-2.7-12.2-6.4c-3.1-3.7-4.5-8.3-4.1-13.1c0.6-6.2,3.7-12,8.6-16
				c4.7-3.8,10.5-5.5,16.3-4.8c0,0,0,0,0,0c7.9,0.9,12.2,3.2,15.8,8.3c3.9,5.5,5.9,13.5,6,24.8C418.4,307.7,414.5,309,409.7,311.5z
				 M408.3,296.8c-5.4,2.1-13.1,3.2-16.3,3.6c-0.6-2-1.5-6,0-9c0.9-1.9,2.7-3.1,5.3-3.7c0.7-0.2,1.4-0.3,2.1-0.3c3,0,5,1.7,6.3,3.3
				C406.9,292.5,407.8,294.6,408.3,296.8z M429.2,518.2c-3.1,0.8-5.7,1-7.9,0.5c-7.1-1.6-12.3-5.3-16-11.1
				c-13.4-21.6-2.2-69.1,8.7-115.1c11.1-47,21.6-91.4,7.7-111.1c-1.5-2.1-3.2-3.9-5.2-5.4c47.4,4.7,98.6,4.2,152.4-1.5
				c12.8,9.3,18.5,24.5,18.1,47.8c-0.4,21.2-5.8,45.7-11.5,71.5c-7.2,32.5-14.5,66-11.2,92.8c-49.5,6.1-130.4-1.1-133.3-1.3
				c-2.3-0.5-4.6-0.4-6.9,0.2c-3.6,0.9-6.7,3.3-8.6,6.5c-1.9,3.2-2.4,7-1.5,10.6c0.8,3,2.7,5.5,5.3,7c1.9,1.1,4.1,1.7,6.3,1.6h13
				C436.4,514.7,433.1,517.1,429.2,518.2z M433.8,501.8l7.2,0c0.1,2.1-0.1,4.1-0.8,6.1h-7.9c0.9-1.2,1.4-2.6,1.6-3.9
				C434,503.3,433.9,502.5,433.8,501.8z M430.7,498.5C430.7,498.5,430.7,498.5,430.7,498.5c-0.8,0-1.4,0.5-1.6,1.2
				c-0.2,0.7,0.1,1.5,0.8,1.9c0.7,0.4,0.7,1.4,0.7,2c-0.2,1.6-1.4,3.6-3.3,4.1c-0.6,0.1-1.1,0.2-1.7,0.3h-0.8
				c-1.3-0.1-2.6-0.4-3.8-1.1c-1.9-1.1-3.2-2.9-3.8-5c-0.7-2.8-0.3-5.6,1.1-8.1c1.4-2.5,3.8-4.2,6.5-4.9c1-0.3,2-0.4,3-0.4
				c2.4,0,4.7,0.7,6.8,2.1c2.7,1.9,4.8,4.8,5.7,8L430.7,498.5z M580.4,518.9c-1.8-0.5-13.5-3.4-36.7-4.9c-21.4-1.4-56.6-1.9-106,3.5
				c1.6-1.4,3-3,4.1-4.9c0.4-0.7,0.8-1.5,1.1-2.2c0,0,0,0,0-0.1c1.6-3.9,2-8.2,0.9-12.3c-0.9-3.3-2.7-6.3-5.2-8.6
				c10,0.8,28.5,2.1,49.3,2.7c32.8,1.1,59,0.3,78.2-2.2c0,0,0,0,0.1,0c0.1,0,0.2,0,0.2,0c0.1,0,0.2,0,0.3-0.1
				c5.1-0.7,9.7-1.5,13.8-2.4c8.6,0.1,15.6,7.2,15.6,15.8C596,511.7,589,518.8,580.4,518.9z"/>
			<path class="st6" d="M430,265.2l-23.9-41.3l-4.1,2.3l22.2,38.5C426.2,264.9,428.1,265.1,430,265.2z"/>
			<path class="st6" d="M499.6,267.3v-86h-4.7v86.1C496.4,267.4,498,267.3,499.6,267.3z"/>
			<path class="st6" d="M410.5,351.7L348,315.2l-2.3,4.1l63.9,37.3C409.8,355,410.2,353.3,410.5,351.7z"/>
			<path class="st6" d="M568.2,262.5c0.4,0,0.7-0.1,1.1-0.1c0.9,0,1.8,0.1,2.7,0.4l29.3-50.7l-4.1-2.3l-30.6,53
				C567.2,262.6,567.7,262.6,568.2,262.5z"/>
			<path class="st6" d="M597.1,344.9l54.1-31.2l-2.3-4.1l-51,29.5C597.6,341,597.3,342.9,597.1,344.9z"/>
			<path class="st6" d="M401.6,392.7c0.1-0.6,0.3-1.2,0.4-1.8h-99.6v4.7h98.5C401.2,394.7,401.4,393.7,401.6,392.7z"/>
			<path class="st6" d="M577.5,446.1l63.6,36.4l2.3-4.1l-65.2-37.3C577.9,442.8,577.7,444.5,577.5,446.1z"/>
			<path class="st6" d="M587.9,392.9c-0.3,1.2-0.5,2.3-0.8,3.5c-0.1,0.4-0.2,0.8-0.3,1.2h96.6v-4.7H587.9z"/>
			<path class="st6" d="M567.5,528.5l21.3,36.8l4.1-2.3l-19.3-33.4C572,529.3,570,528.9,567.5,528.5z"/>
			<path class="st6" d="M411.1,527.8l-25,42.9l4.1,2.3l25.3-43.5C414,529,412.5,528.4,411.1,527.8z"/>
			<path class="st6" d="M489.8,525.4v64.5h4.7v-64.7C493,525.3,491.4,525.4,489.8,525.4z"/>
			<path class="st6" d="M390.1,447.5l-61,35.2l2.3,4.1l57.7-33.3C389.5,451.5,389.8,449.5,390.1,447.5z"/>
		</g>
	</g>
</g>
<g id="Guides" class="st7">
</g>
</svg>
